<svg xmlns="http://www.w3.org/2000/svg" viewBox="0 0 100.18 100.18"><defs><style>.cls-1{fill:none;stroke:#fff;stroke-miterlimit:10;stroke-width:2.14px;}.cls-2{fill:#fff;}</style></defs><g id="Layer_2" data-name="Layer 2"><g id="Layer_1-2" data-name="Layer 1"><path class="cls-1" d="M99.1,50.09A49,49,0,0,1,57.74,98.53a51.62,51.62,0,0,1-15.3,0A49,49,0,1,1,99.1,50.09Z"/><path class="cls-2" d="M69.17,64.26l2.17-14.17H57.75V40.9c0-3.88,1.9-7.66,8-7.66h6.19V21.18a75.22,75.22,0,0,0-11-1c-11.19,0-18.51,6.79-18.51,19.07v10.8H30V64.26H42.43V98.52a50,50,0,0,0,15.32,0V64.26Z"/></g></g></svg>