<svg xmlns="http://www.w3.org/2000/svg" viewBox="0 0 122.71 122.71"><defs><style>.cls-1{fill:#fff;}</style></defs><g id="Layer_2" data-name="Layer 2"><g id="Layer_1-2" data-name="Layer 1"><path class="cls-1" d="M83.41,51.65a22.7,22.7,0,1,0-44.11,0,33.73,33.73,0,0,0,2.48,8.83C44,65.17,53.39,80.64,57.7,87.68c-5.82.75-8.53,3.25-8.53,5.61,0,2.81,3.82,5.84,12.19,5.84s12.18-3,12.18-5.84c0-2.36-2.7-4.86-8.53-5.61,4.31-7,13.7-22.51,15.93-27.2A33.77,33.77,0,0,0,83.41,51.65ZM70,93.29c-.24.67-3.17,2.33-8.67,2.33s-8.51-1.7-8.68-2.3c.16-.59,2.55-2,7.07-2.3l.11.18a1.75,1.75,0,0,0,3,0L63,91C67.43,91.3,69.82,92.7,70,93.29ZM80,50.88A.68.68,0,0,0,80,51a31.29,31.29,0,0,1-2.2,8c-2.25,4.73-12.53,21.61-16.41,28-3.89-6.34-14.17-23.22-16.42-28a30.92,30.92,0,0,1-2.19-8l0-.14a19.2,19.2,0,1,1,37.27,0Z"/><path class="cls-1" d="M61.36,33.52A12.19,12.19,0,1,0,73.54,45.7,12.2,12.2,0,0,0,61.36,33.52Zm0,20.86A8.68,8.68,0,1,1,70,45.7,8.68,8.68,0,0,1,61.36,54.38Z"/><path class="cls-1" d="M117.89,37.47a61.59,61.59,0,1,0,4.82,23.89A61.18,61.18,0,0,0,117.89,37.47Zm-15.58,64.84A57.92,57.92,0,0,1,20.4,20.4a57.92,57.92,0,0,1,81.91,81.91Z"/></g></g></svg>