<?xml version="1.0" encoding="utf-8"?>
<!-- Generator: Adobe Illustrator 27.1.0, SVG Export Plug-In . SVG Version: 6.00 Build 0)  -->
<svg version="1.1" id="Layer_1" xmlns="http://www.w3.org/2000/svg" xmlns:xlink="http://www.w3.org/1999/xlink" x="0px" y="0px"
	 viewBox="0 0 775 256" style="enable-background:new 0 0 775 256;" xml:space="preserve">
<style type="text/css">
	.st0{fill:url(#SVGID_1_);}
	.st1{fill:url(#SVGID_00000098213055109992201250000003788922956332728205_);}
	.st2{fill:url(#SVGID_00000030453925956306083230000000472635861894208921_);}
	.st3{fill:url(#SVGID_00000023971503491910278060000008262526502228917395_);}
	.st4{fill:url(#SVGID_00000098219057509189159720000016100868192977250716_);}
	.st5{fill:url(#SVGID_00000141422809408251361290000001959111335079079067_);}
	.st6{fill:url(#SVGID_00000090278993291260939870000016966765842427618944_);}
	.st7{fill:url(#SVGID_00000165213331038225652630000005267638342212481693_);}
	.st8{fill:url(#SVGID_00000151541463454969089470000004303127123194172047_);}
	.st9{fill:url(#SVGID_00000125579558819935416460000002576328091741136057_);}
	.st10{fill:url(#SVGID_00000049189138752822202190000006112715728687088278_);}
	.st11{fill:url(#SVGID_00000103248013799875152400000004561101862557337236_);}
	.st12{fill:url(#SVGID_00000173152927662335273150000018094632387496267964_);}
	.st13{fill:url(#SVGID_00000155114347178125364160000015378378897362133915_);}
	.st14{fill:url(#SVGID_00000100352801642786041030000018303223334905877158_);}
	.st15{fill:url(#SVGID_00000087384870457988233330000014985552133165284483_);}
	.st16{fill:url(#SVGID_00000055709181211906847530000018416128597387604383_);}
	.st17{fill:url(#SVGID_00000113318986420432941560000003018219823633972119_);}
	.st18{fill:url(#SVGID_00000050621369513888360080000000983037465353409975_);}
	.st19{fill:url(#SVGID_00000127736876348369747160000010266896125417745302_);}
	.st20{fill:url(#SVGID_00000183206707019945082150000009859634196035207074_);}
	.st21{fill:url(#SVGID_00000078725206130788266500000011253049331088366244_);}
	.st22{fill:url(#SVGID_00000016038994697191372560000013829115384424436869_);}
	.st23{fill:url(#SVGID_00000088110448836063880280000009346239627838879670_);}
	.st24{fill:url(#SVGID_00000147926477789863739070000000423215177346472838_);}
	.st25{fill:url(#SVGID_00000070081849856025149540000013344209016987508875_);}
	.st26{fill:url(#SVGID_00000042723228632859295180000005534279958608787850_);}
	.st27{fill:url(#SVGID_00000178925398238256442540000011287057754437551767_);}
	.st28{fill:url(#SVGID_00000062909569205513560960000001084480831655224966_);}
	.st29{fill-rule:evenodd;clip-rule:evenodd;fill:url(#SVGID_00000180332372141012032600000016270646724296745640_);}
	.st30{fill:url(#SVGID_00000158005260773533849450000009456347643853513135_);}
	.st31{fill:url(#SVGID_00000096775885968636756920000004312157427257049501_);}
	.st32{fill:url(#SVGID_00000075139287596257934030000000330782279012277678_);}
	.st33{fill:url(#SVGID_00000061465677747909398780000010390904777893319357_);}
	.st34{fill:url(#SVGID_00000047054569838482958910000004650391289281551545_);}
	.st35{fill:url(#SVGID_00000031925639920892625240000009283557322237265812_);}
	.st36{fill:url(#SVGID_00000013158826508849339900000001041793271949866899_);}
	.st37{fill:url(#SVGID_00000088111702330870455400000002433856637317143462_);}
	.st38{fill:url(#SVGID_00000179619749670868343140000006865837155010142135_);}
</style>
<g>
	<g>
		<g>
			<g>
				<linearGradient id="SVGID_1_" gradientUnits="userSpaceOnUse" x1="362.8394" y1="176.5724" x2="362.8394" y2="305.2615">
					<stop  offset="0" style="stop-color:#F2BF2B"/>
					<stop  offset="0" style="stop-color:#EAC13A"/>
					<stop  offset="0.3198" style="stop-color:#FAF28E"/>
					<stop  offset="0.6802" style="stop-color:#D9AA28"/>
					<stop  offset="1" style="stop-color:#F8F298"/>
				</linearGradient>
				<path class="st0" d="M362.04,192.56l-4.43-11.44h1.64l2.97,8.31c0.24,0.67,0.44,1.29,0.6,1.87c0.18-0.62,0.38-1.25,0.62-1.87
					l3.09-8.31h1.55l-4.48,11.44H362.04z"/>
				
					<linearGradient id="SVGID_00000012438154571852808800000006538095558463572380_" gradientUnits="userSpaceOnUse" x1="375.3257" y1="176.5724" x2="375.3257" y2="305.2615">
					<stop  offset="0" style="stop-color:#F2BF2B"/>
					<stop  offset="0" style="stop-color:#EAC13A"/>
					<stop  offset="0.3198" style="stop-color:#FAF28E"/>
					<stop  offset="0.6802" style="stop-color:#D9AA28"/>
					<stop  offset="1" style="stop-color:#F8F298"/>
				</linearGradient>
				<path style="fill:url(#SVGID_00000012438154571852808800000006538095558463572380_);" d="M379.69,182.75v-1.63h1.51v1.29
					c0,0.82-0.09,1.39-0.28,1.71c-0.52,0.9-1.34,1.38-2.47,1.43v2.19c0,1.17-0.13,2.08-0.39,2.74c-0.27,0.68-0.74,1.23-1.4,1.65
					c-0.68,0.43-1.57,0.64-2.68,0.64c-2.13,0-3.49-0.72-4.09-2.16c-0.29-0.7-0.44-1.65-0.44-2.86v-6.61h1.51v6.6
					c0,0.98,0.09,1.72,0.28,2.2c0.18,0.46,0.49,0.82,0.94,1.08c0.45,0.26,1,0.39,1.65,0.39c1.14,0,1.93-0.25,2.38-0.76
					c0.47-0.53,0.71-1.5,0.71-2.91v-6.6h1.51v3.85c0.81-0.08,1.4-0.41,1.76-0.97c0.14-0.22,0.21-0.63,0.21-1.25H379.69z
					 M371.44,180.42c-0.01-0.54,0.14-0.97,0.44-1.3c0.3-0.32,0.68-0.48,1.14-0.48c0.32,0,0.76,0.14,1.32,0.42
					c0.31,0.16,0.55,0.23,0.73,0.23c0.17,0,0.29-0.05,0.38-0.14c0.09-0.09,0.15-0.27,0.19-0.54h1.01c-0.02,0.59-0.17,1.04-0.45,1.33
					c-0.28,0.3-0.64,0.44-1.08,0.44c-0.33,0-0.76-0.15-1.3-0.44c-0.35-0.19-0.6-0.28-0.76-0.28c-0.18,0-0.32,0.06-0.43,0.19
					c-0.11,0.12-0.17,0.31-0.16,0.55H371.44z"/>
				
					<linearGradient id="SVGID_00000061460210005497729640000008923147817206188459_" gradientUnits="userSpaceOnUse" x1="387.5699" y1="176.5724" x2="387.5699" y2="305.2615">
					<stop  offset="0" style="stop-color:#F2BF2B"/>
					<stop  offset="0" style="stop-color:#EAC13A"/>
					<stop  offset="0.3198" style="stop-color:#FAF28E"/>
					<stop  offset="0.6802" style="stop-color:#D9AA28"/>
					<stop  offset="1" style="stop-color:#F8F298"/>
				</linearGradient>
				<path style="fill:url(#SVGID_00000061460210005497729640000008923147817206188459_);" d="M383.06,192.56v-11.44h1.55l6.01,8.98
					v-8.98h1.45v11.44h-1.55l-6.01-8.99v8.99H383.06z"/>
				
					<linearGradient id="SVGID_00000018945506172560612820000012926427194395643264_" gradientUnits="userSpaceOnUse" x1="399.5295" y1="176.5724" x2="399.5295" y2="305.2615">
					<stop  offset="0" style="stop-color:#F2BF2B"/>
					<stop  offset="0" style="stop-color:#EAC13A"/>
					<stop  offset="0.3198" style="stop-color:#FAF28E"/>
					<stop  offset="0.6802" style="stop-color:#D9AA28"/>
					<stop  offset="1" style="stop-color:#F8F298"/>
				</linearGradient>
				<path style="fill:url(#SVGID_00000018945506172560612820000012926427194395643264_);" d="M399.97,188.08v-1.34l4.85-0.01v4.25
					c-0.74,0.59-1.51,1.04-2.3,1.34c-0.79,0.3-1.6,0.45-2.43,0.45c-1.12,0-2.14-0.24-3.06-0.72c-0.92-0.48-1.61-1.18-2.08-2.09
					c-0.47-0.91-0.7-1.93-0.7-3.05c0-1.11,0.23-2.15,0.7-3.12c0.47-0.96,1.14-1.68,2.01-2.15c0.87-0.47,1.88-0.7,3.02-0.7
					c0.83,0,1.58,0.13,2.24,0.4c0.67,0.27,1.19,0.64,1.57,1.12c0.38,0.48,0.67,1.1,0.87,1.87l-1.37,0.37
					c-0.17-0.58-0.39-1.04-0.64-1.37c-0.26-0.33-0.62-0.6-1.09-0.8c-0.47-0.2-1-0.3-1.58-0.3c-0.69,0-1.29,0.11-1.79,0.32
					c-0.5,0.21-0.91,0.49-1.22,0.83c-0.31,0.34-0.55,0.72-0.72,1.13c-0.29,0.71-0.44,1.47-0.44,2.3c0,1.02,0.18,1.87,0.53,2.56
					c0.35,0.69,0.86,1.2,1.53,1.53c0.67,0.33,1.38,0.5,2.14,0.5c0.66,0,1.3-0.13,1.92-0.38c0.62-0.25,1.1-0.52,1.42-0.81v-2.13
					H399.97z"/>
				
					<linearGradient id="SVGID_00000034073192417853134880000005656399790759860368_" gradientUnits="userSpaceOnUse" x1="416.4015" y1="176.5724" x2="416.4015" y2="305.2615">
					<stop  offset="0" style="stop-color:#F2BF2B"/>
					<stop  offset="0" style="stop-color:#EAC13A"/>
					<stop  offset="0.3198" style="stop-color:#FAF28E"/>
					<stop  offset="0.6802" style="stop-color:#D9AA28"/>
					<stop  offset="1" style="stop-color:#F8F298"/>
				</linearGradient>
				<path style="fill:url(#SVGID_00000034073192417853134880000005656399790759860368_);" d="M416.85,188.08v-1.34l4.85-0.01v4.25
					c-0.74,0.59-1.51,1.04-2.3,1.34c-0.79,0.3-1.6,0.45-2.43,0.45c-1.12,0-2.14-0.24-3.06-0.72c-0.92-0.48-1.61-1.18-2.08-2.09
					c-0.47-0.91-0.7-1.93-0.7-3.05c0-1.11,0.23-2.15,0.7-3.12c0.47-0.96,1.14-1.68,2.01-2.15c0.87-0.47,1.88-0.7,3.02-0.7
					c0.83,0,1.58,0.13,2.24,0.4c0.67,0.27,1.19,0.64,1.57,1.12c0.38,0.48,0.67,1.1,0.87,1.87l-1.37,0.37
					c-0.17-0.58-0.39-1.04-0.64-1.37c-0.26-0.33-0.62-0.6-1.09-0.8c-0.47-0.2-1-0.3-1.58-0.3c-0.69,0-1.29,0.11-1.79,0.32
					c-0.5,0.21-0.91,0.49-1.22,0.83c-0.31,0.34-0.55,0.72-0.72,1.13c-0.29,0.71-0.44,1.47-0.44,2.3c0,1.02,0.18,1.87,0.53,2.56
					c0.35,0.69,0.86,1.2,1.53,1.53c0.67,0.33,1.38,0.5,2.14,0.5c0.66,0,1.3-0.13,1.92-0.38c0.62-0.25,1.1-0.52,1.42-0.81v-2.13
					H416.85z"/>
				
					<linearGradient id="SVGID_00000030473293117078433360000008769351524035673535_" gradientUnits="userSpaceOnUse" x1="424.939" y1="176.5724" x2="424.939" y2="305.2615">
					<stop  offset="0" style="stop-color:#F2BF2B"/>
					<stop  offset="0" style="stop-color:#EAC13A"/>
					<stop  offset="0.3198" style="stop-color:#FAF28E"/>
					<stop  offset="0.6802" style="stop-color:#D9AA28"/>
					<stop  offset="1" style="stop-color:#F8F298"/>
				</linearGradient>
				<path style="fill:url(#SVGID_00000030473293117078433360000008769351524035673535_);" d="M424.18,192.56v-11.44h1.51v11.44
					H424.18z"/>
				
					<linearGradient id="SVGID_00000131329987542757108960000006758062166649889670_" gradientUnits="userSpaceOnUse" x1="432.4619" y1="176.5724" x2="432.4619" y2="305.2615">
					<stop  offset="0" style="stop-color:#F2BF2B"/>
					<stop  offset="0" style="stop-color:#EAC13A"/>
					<stop  offset="0.3198" style="stop-color:#FAF28E"/>
					<stop  offset="0.6802" style="stop-color:#D9AA28"/>
					<stop  offset="1" style="stop-color:#F8F298"/>
				</linearGradient>
				<path style="fill:url(#SVGID_00000131329987542757108960000006758062166649889670_);" d="M427.11,192.56l4.39-11.44h1.63
					l4.68,11.44h-1.72l-1.33-3.46h-4.78l-1.26,3.46H427.11z M430.41,187.87h3.88l-1.19-3.17c-0.36-0.96-0.63-1.75-0.81-2.37
					c-0.15,0.73-0.35,1.46-0.62,2.19L430.41,187.87z M431.35,180.42l1.04-2.19h1.84l-1.72,2.19H431.35z"/>
				
					<linearGradient id="SVGID_00000124841617820276797480000016091360392133025681_" gradientUnits="userSpaceOnUse" x1="446.8523" y1="176.5724" x2="446.8523" y2="305.2615">
					<stop  offset="0" style="stop-color:#F2BF2B"/>
					<stop  offset="0" style="stop-color:#EAC13A"/>
					<stop  offset="0.3198" style="stop-color:#FAF28E"/>
					<stop  offset="0.6802" style="stop-color:#D9AA28"/>
					<stop  offset="1" style="stop-color:#F8F298"/>
				</linearGradient>
				<path style="fill:url(#SVGID_00000124841617820276797480000016091360392133025681_);" d="M446.09,192.56v-10.09h-3.77v-1.35
					h9.07v1.35h-3.78v10.09H446.09z"/>
				
					<linearGradient id="SVGID_00000148626691143050026830000015197789441861893791_" gradientUnits="userSpaceOnUse" x1="458.0042" y1="176.5724" x2="458.0042" y2="305.2615">
					<stop  offset="0" style="stop-color:#F2BF2B"/>
					<stop  offset="0" style="stop-color:#EAC13A"/>
					<stop  offset="0.3198" style="stop-color:#FAF28E"/>
					<stop  offset="0.6802" style="stop-color:#D9AA28"/>
					<stop  offset="1" style="stop-color:#F8F298"/>
				</linearGradient>
				<path style="fill:url(#SVGID_00000148626691143050026830000015197789441861893791_);" d="M452.96,192.56v-11.44h5.07
					c1.02,0,1.79,0.1,2.33,0.31c0.53,0.21,0.95,0.57,1.27,1.09c0.32,0.52,0.48,1.1,0.48,1.72c0,0.81-0.26,1.5-0.79,2.05
					c-0.53,0.56-1.34,0.91-2.43,1.06c0.4,0.19,0.7,0.38,0.91,0.57c0.44,0.41,0.86,0.91,1.26,1.52l1.99,3.11h-1.9l-1.51-2.38
					c-0.44-0.69-0.81-1.21-1.09-1.58c-0.29-0.36-0.54-0.62-0.77-0.76c-0.23-0.15-0.46-0.25-0.69-0.3c-0.17-0.04-0.45-0.05-0.84-0.05
					h-1.76v5.08H452.96z M454.48,186.17h3.25c0.69,0,1.23-0.07,1.62-0.21c0.39-0.14,0.69-0.37,0.89-0.69c0.2-0.31,0.3-0.66,0.3-1.03
					c0-0.54-0.2-0.99-0.59-1.33c-0.39-0.35-1.01-0.52-1.86-0.52h-3.62V186.17z"/>
				
					<linearGradient id="SVGID_00000119088270248830192140000003484333179318122886_" gradientUnits="userSpaceOnUse" x1="465.4998" y1="176.5724" x2="465.4998" y2="305.2615">
					<stop  offset="0" style="stop-color:#F2BF2B"/>
					<stop  offset="0" style="stop-color:#EAC13A"/>
					<stop  offset="0.3198" style="stop-color:#FAF28E"/>
					<stop  offset="0.6802" style="stop-color:#D9AA28"/>
					<stop  offset="1" style="stop-color:#F8F298"/>
				</linearGradient>
				<path style="fill:url(#SVGID_00000119088270248830192140000003484333179318122886_);" d="M464.7,195.1v-1.6h1.6v1.6H464.7z
					 M464.74,192.56v-11.44h1.51v11.44H464.74z"/>
				
					<linearGradient id="SVGID_00000038374118772807829870000006757143810899921854_" gradientUnits="userSpaceOnUse" x1="474.7943" y1="176.5724" x2="474.7943" y2="305.2615">
					<stop  offset="0" style="stop-color:#F2BF2B"/>
					<stop  offset="0" style="stop-color:#EAC13A"/>
					<stop  offset="0.3198" style="stop-color:#FAF28E"/>
					<stop  offset="0.6802" style="stop-color:#D9AA28"/>
					<stop  offset="1" style="stop-color:#F8F298"/>
				</linearGradient>
				<path style="fill:url(#SVGID_00000038374118772807829870000006757143810899921854_);" d="M472.64,189.13v-1.41h4.32v1.41H472.64
					z"/>
				
					<linearGradient id="SVGID_00000059285472398745738730000018154495984168008124_" gradientUnits="userSpaceOnUse" x1="487.382" y1="176.5724" x2="487.382" y2="305.2615">
					<stop  offset="0" style="stop-color:#F2BF2B"/>
					<stop  offset="0" style="stop-color:#EAC13A"/>
					<stop  offset="0.3198" style="stop-color:#FAF28E"/>
					<stop  offset="0.6802" style="stop-color:#D9AA28"/>
					<stop  offset="1" style="stop-color:#F8F298"/>
				</linearGradient>
				<path style="fill:url(#SVGID_00000059285472398745738730000018154495984168008124_);" d="M483.06,192.56v-11.44h4.29
					c0.87,0,1.58,0.12,2.1,0.35c0.53,0.23,0.94,0.59,1.24,1.07c0.3,0.48,0.45,0.98,0.45,1.51c0,0.49-0.13,0.95-0.4,1.38
					c-0.27,0.43-0.67,0.78-1.2,1.05c0.69,0.2,1.22,0.55,1.6,1.04c0.37,0.49,0.56,1.07,0.56,1.73c0,0.54-0.11,1.03-0.34,1.49
					c-0.23,0.46-0.51,0.82-0.84,1.07c-0.33,0.25-0.75,0.44-1.25,0.57c-0.5,0.13-1.12,0.19-1.85,0.19H483.06z M484.58,185.93h2.47
					c0.67,0,1.15-0.04,1.44-0.13c0.38-0.11,0.68-0.3,0.87-0.57c0.2-0.27,0.29-0.6,0.29-1c0-0.38-0.09-0.71-0.27-1
					c-0.18-0.29-0.44-0.49-0.78-0.59c-0.34-0.11-0.92-0.16-1.74-0.16h-2.29V185.93z M484.58,191.21h2.85c0.49,0,0.83-0.02,1.03-0.05
					c0.35-0.06,0.64-0.17,0.87-0.31c0.23-0.15,0.43-0.36,0.58-0.64c0.15-0.28,0.23-0.6,0.23-0.96c0-0.43-0.11-0.8-0.33-1.11
					c-0.22-0.31-0.52-0.54-0.91-0.66c-0.39-0.13-0.95-0.19-1.67-0.19h-2.65V191.21z"/>
				
					<linearGradient id="SVGID_00000153696514098660153200000017074793973301605804_" gradientUnits="userSpaceOnUse" x1="498.0851" y1="176.5724" x2="498.0851" y2="305.2615">
					<stop  offset="0" style="stop-color:#F2BF2B"/>
					<stop  offset="0" style="stop-color:#EAC13A"/>
					<stop  offset="0.3198" style="stop-color:#FAF28E"/>
					<stop  offset="0.6802" style="stop-color:#D9AA28"/>
					<stop  offset="1" style="stop-color:#F8F298"/>
				</linearGradient>
				<path style="fill:url(#SVGID_00000153696514098660153200000017074793973301605804_);" d="M493.82,192.56v-11.44h8.27v1.35h-6.76
					v3.5h6.33v1.34h-6.33v3.89h7.02v1.35H493.82z M497.94,180.2l-1.02,0.52h-1.37l1.63-0.96h1.52l1.62,0.96h-1.37L497.94,180.2z
					 M498.7,179.48h-1.01l-1.8-1.23h1.76L498.7,179.48z"/>
				
					<linearGradient id="SVGID_00000152973184312873942980000012335499528973366912_" gradientUnits="userSpaceOnUse" x1="508.9363" y1="176.5724" x2="508.9363" y2="305.2615">
					<stop  offset="0" style="stop-color:#F2BF2B"/>
					<stop  offset="0" style="stop-color:#EAC13A"/>
					<stop  offset="0.3198" style="stop-color:#FAF28E"/>
					<stop  offset="0.6802" style="stop-color:#D9AA28"/>
					<stop  offset="1" style="stop-color:#F8F298"/>
				</linearGradient>
				<path style="fill:url(#SVGID_00000152973184312873942980000012335499528973366912_);" d="M504.43,192.56v-11.44h1.55l6.01,8.98
					v-8.98h1.45v11.44h-1.55l-6.01-8.99v8.99H504.43z"/>
				
					<linearGradient id="SVGID_00000176028702284072540420000013897712834855230131_" gradientUnits="userSpaceOnUse" x1="523.8145" y1="176.5724" x2="523.8145" y2="305.2615">
					<stop  offset="0" style="stop-color:#F2BF2B"/>
					<stop  offset="0" style="stop-color:#EAC13A"/>
					<stop  offset="0.3198" style="stop-color:#FAF28E"/>
					<stop  offset="0.6802" style="stop-color:#D9AA28"/>
					<stop  offset="1" style="stop-color:#F8F298"/>
				</linearGradient>
				<path style="fill:url(#SVGID_00000176028702284072540420000013897712834855230131_);" d="M523.05,192.56v-10.09h-3.77v-1.35
					h9.07v1.35h-3.78v10.09H523.05z"/>
				
					<linearGradient id="SVGID_00000183942445302661125150000014485814427542695087_" gradientUnits="userSpaceOnUse" x1="535.7974" y1="176.5724" x2="535.7974" y2="305.2615">
					<stop  offset="0" style="stop-color:#F2BF2B"/>
					<stop  offset="0" style="stop-color:#EAC13A"/>
					<stop  offset="0.3198" style="stop-color:#FAF28E"/>
					<stop  offset="0.6802" style="stop-color:#D9AA28"/>
					<stop  offset="1" style="stop-color:#F8F298"/>
				</linearGradient>
				<path style="fill:url(#SVGID_00000183942445302661125150000014485814427542695087_);" d="M540.16,182.75v-1.63h1.51v1.29
					c0,0.82-0.09,1.39-0.28,1.71c-0.52,0.9-1.34,1.38-2.47,1.43v2.19c0,1.17-0.13,2.08-0.39,2.74c-0.27,0.68-0.74,1.23-1.4,1.65
					c-0.68,0.43-1.57,0.64-2.68,0.64c-2.13,0-3.49-0.72-4.09-2.16c-0.29-0.7-0.44-1.65-0.44-2.86v-6.61h1.51v6.6
					c0,0.98,0.09,1.72,0.28,2.2c0.18,0.46,0.49,0.82,0.94,1.08c0.45,0.26,1,0.39,1.65,0.39c1.14,0,1.93-0.25,2.38-0.76
					c0.47-0.53,0.71-1.5,0.71-2.91v-6.6h1.51v3.85c0.81-0.08,1.4-0.41,1.76-0.97c0.14-0.22,0.21-0.63,0.21-1.25H540.16z"/>
				
					<linearGradient id="SVGID_00000045592604420257791300000015661646906793811331_" gradientUnits="userSpaceOnUse" x1="549.3685" y1="176.5724" x2="549.3685" y2="305.2615">
					<stop  offset="0" style="stop-color:#F2BF2B"/>
					<stop  offset="0" style="stop-color:#EAC13A"/>
					<stop  offset="0.3198" style="stop-color:#FAF28E"/>
					<stop  offset="0.6802" style="stop-color:#D9AA28"/>
					<stop  offset="1" style="stop-color:#F8F298"/>
				</linearGradient>
				<path style="fill:url(#SVGID_00000045592604420257791300000015661646906793811331_);" d="M554.14,182.63V181h1.51v1.29
					c0,0.65-0.1,1.14-0.3,1.48c-0.27,0.47-0.78,0.91-1.52,1.3c0.14,0.56,0.2,1.16,0.2,1.79c0,1.17-0.24,2.2-0.71,3.12
					c-0.47,0.91-1.13,1.6-1.99,2.08c-0.86,0.47-1.78,0.71-2.77,0.71c-1.07,0-2.03-0.26-2.88-0.78c-0.85-0.52-1.49-1.23-1.93-2.13
					c-0.44-0.9-0.66-1.86-0.66-2.86c0-1.87,0.51-3.36,1.53-4.46c0.99-1.07,2.31-1.61,3.95-1.61c1.18,0,2.23,0.32,3.14,0.96
					c0.91,0.64,1.56,1.5,1.94,2.59c0.47-0.25,0.81-0.53,1-0.82c0.16-0.23,0.23-0.57,0.23-1.02H554.14z M544.65,187.02
					c0,1.35,0.37,2.44,1.12,3.26c0.72,0.79,1.65,1.19,2.79,1.19c1.17,0,2.1-0.4,2.82-1.2c0.73-0.83,1.1-1.97,1.1-3.41
					c0-1.92-0.62-3.28-1.85-4.06c-0.61-0.38-1.29-0.57-2.04-0.57c-1.16,0-2.08,0.37-2.76,1.1
					C545.04,184.16,544.65,185.39,544.65,187.02z"/>
				
					<linearGradient id="SVGID_00000146492496284694715300000001681490019344669880_" gradientUnits="userSpaceOnUse" x1="561.7454" y1="176.5724" x2="561.7454" y2="305.2615">
					<stop  offset="0" style="stop-color:#F2BF2B"/>
					<stop  offset="0" style="stop-color:#EAC13A"/>
					<stop  offset="0.3198" style="stop-color:#FAF28E"/>
					<stop  offset="0.6802" style="stop-color:#D9AA28"/>
					<stop  offset="1" style="stop-color:#F8F298"/>
				</linearGradient>
				<path style="fill:url(#SVGID_00000146492496284694715300000001681490019344669880_);" d="M557.24,192.56v-11.44h1.55l6.01,8.98
					v-8.98h1.45v11.44h-1.55l-6.01-8.99v8.99H557.24z"/>
				
					<linearGradient id="SVGID_00000031911442072033485940000010782240590552765058_" gradientUnits="userSpaceOnUse" x1="573.705" y1="176.5724" x2="573.705" y2="305.2615">
					<stop  offset="0" style="stop-color:#F2BF2B"/>
					<stop  offset="0" style="stop-color:#EAC13A"/>
					<stop  offset="0.3198" style="stop-color:#FAF28E"/>
					<stop  offset="0.6802" style="stop-color:#D9AA28"/>
					<stop  offset="1" style="stop-color:#F8F298"/>
				</linearGradient>
				<path style="fill:url(#SVGID_00000031911442072033485940000010782240590552765058_);" d="M574.15,188.08v-1.34l4.85-0.01v4.25
					c-0.74,0.59-1.51,1.04-2.3,1.34c-0.79,0.3-1.6,0.45-2.43,0.45c-1.12,0-2.14-0.24-3.06-0.72c-0.92-0.48-1.61-1.18-2.08-2.09
					c-0.47-0.91-0.7-1.93-0.7-3.05c0-1.11,0.23-2.15,0.7-3.12c0.47-0.96,1.14-1.68,2.01-2.15c0.87-0.47,1.88-0.7,3.02-0.7
					c0.83,0,1.58,0.13,2.24,0.4c0.67,0.27,1.19,0.64,1.57,1.12c0.38,0.48,0.67,1.1,0.87,1.87l-1.37,0.37
					c-0.17-0.58-0.39-1.04-0.64-1.37c-0.26-0.33-0.62-0.6-1.09-0.8c-0.47-0.2-1-0.3-1.58-0.3c-0.69,0-1.29,0.11-1.79,0.32
					c-0.5,0.21-0.91,0.49-1.22,0.83c-0.31,0.34-0.55,0.72-0.72,1.13c-0.29,0.71-0.44,1.47-0.44,2.3c0,1.02,0.18,1.87,0.53,2.56
					c0.35,0.69,0.86,1.2,1.53,1.53c0.67,0.33,1.38,0.5,2.14,0.5c0.66,0,1.3-0.13,1.92-0.38c0.62-0.25,1.1-0.52,1.42-0.81v-2.13
					H574.15z"/>
				
					<linearGradient id="SVGID_00000078027708692433037300000018409300109042681743_" gradientUnits="userSpaceOnUse" x1="589.18" y1="176.5724" x2="589.18" y2="305.2615">
					<stop  offset="0" style="stop-color:#F2BF2B"/>
					<stop  offset="0" style="stop-color:#EAC13A"/>
					<stop  offset="0.3198" style="stop-color:#FAF28E"/>
					<stop  offset="0.6802" style="stop-color:#D9AA28"/>
					<stop  offset="1" style="stop-color:#F8F298"/>
				</linearGradient>
				<path style="fill:url(#SVGID_00000078027708692433037300000018409300109042681743_);" d="M585.61,192.56v-11.44h1.51v10.09h5.63
					v1.35H585.61z"/>
				
					<linearGradient id="SVGID_00000031197852141812082210000005760546660922154663_" gradientUnits="userSpaceOnUse" x1="598.654" y1="176.5724" x2="598.654" y2="305.2615">
					<stop  offset="0" style="stop-color:#F2BF2B"/>
					<stop  offset="0" style="stop-color:#EAC13A"/>
					<stop  offset="0.3198" style="stop-color:#FAF28E"/>
					<stop  offset="0.6802" style="stop-color:#D9AA28"/>
					<stop  offset="1" style="stop-color:#F8F298"/>
				</linearGradient>
				<path style="fill:url(#SVGID_00000031197852141812082210000005760546660922154663_);" d="M593.3,192.56l4.39-11.44h1.63
					l4.68,11.44h-1.72l-1.33-3.46h-4.78l-1.26,3.46H593.3z M596.6,187.87h3.88l-1.19-3.17c-0.36-0.96-0.63-1.75-0.81-2.37
					c-0.15,0.73-0.35,1.46-0.62,2.19L596.6,187.87z"/>
				
					<linearGradient id="SVGID_00000177480652809417999660000012847291781947745953_" gradientUnits="userSpaceOnUse" x1="606.2316" y1="176.5724" x2="606.2316" y2="305.2615">
					<stop  offset="0" style="stop-color:#F2BF2B"/>
					<stop  offset="0" style="stop-color:#EAC13A"/>
					<stop  offset="0.3198" style="stop-color:#FAF28E"/>
					<stop  offset="0.6802" style="stop-color:#D9AA28"/>
					<stop  offset="1" style="stop-color:#F8F298"/>
				</linearGradient>
				<path style="fill:url(#SVGID_00000177480652809417999660000012847291781947745953_);" d="M605.47,192.56v-11.44h1.51v11.44
					H605.47z"/>
			</g>
		</g>
		<g>
			
				<linearGradient id="SVGID_00000181082427801046553230000005433363639123868591_" gradientUnits="userSpaceOnUse" x1="382.6217" y1="87.273" x2="382.6217" y2="214.9296">
				<stop  offset="0" style="stop-color:#F2BF2B"/>
				<stop  offset="0" style="stop-color:#EAC13A"/>
				<stop  offset="0.3198" style="stop-color:#FAF28E"/>
				<stop  offset="0.6802" style="stop-color:#D9AA28"/>
				<stop  offset="1" style="stop-color:#F8F298"/>
			</linearGradient>
			<path style="fill:url(#SVGID_00000181082427801046553230000005433363639123868591_);" d="M409.95,108.96v18.8h-7.93v13.5
				c0,0.88-0.03,1.74-0.09,2.57v14.83c0,2.87-2.33,5.2-5.2,5.2h-36.25c-2.87,0-5.2-2.33-5.2-5.2v-49.69h1.41c0.02,0,0.04,0,0.05,0
				h11.28c0.04,0,0.08,0,0.11,0h1.47v44.59h8.73c0.1,0,0.21,0,0.31,0c0.1,0,0.21,0,0.31,0h8.77v-44.59h14.28v11.09h2.39
				c0.03-0.16,0.04-0.33,0.04-0.51l-0.04-4.62v-5.96H409.95z"/>
			<g>
				
					<linearGradient id="SVGID_00000002371428751787039430000003863301898952603297_" gradientUnits="userSpaceOnUse" x1="321.0387" y1="87.273" x2="321.0387" y2="214.9296">
					<stop  offset="0" style="stop-color:#F2BF2B"/>
					<stop  offset="0" style="stop-color:#EAC13A"/>
					<stop  offset="0.3198" style="stop-color:#FAF28E"/>
					<stop  offset="0.6802" style="stop-color:#D9AA28"/>
					<stop  offset="1" style="stop-color:#F8F298"/>
				</linearGradient>
				<path style="fill:url(#SVGID_00000002371428751787039430000003863301898952603297_);" d="M343.54,163.4l-10.63-20.87
					c2.72-1.72,4.9-3.95,6.54-6.68c1.64-2.73,2.46-5.55,2.46-8.45c0-3.1-0.75-6.08-2.23-8.93c-1.49-2.85-3.57-5.14-6.24-6.89
					c-2.67-1.75-5.68-2.62-9.05-2.62h-19.37h-6.73l0,12.7v35.88h0v6.31h14.25v-18.25h5.97l9.5,18.25h15.75L343.54,163.4z
					 M326.49,130.37c-0.57,1.03-1.35,1.85-2.35,2.48c-1,0.63-2.13,0.94-3.38,0.94h-8.2V120.4h8.2c1.23,0,2.35,0.32,3.35,0.98
					c1,0.66,1.79,1.51,2.37,2.56c0.58,1.05,0.86,2.12,0.86,3.2C327.33,128.26,327.05,129.34,326.49,130.37z"/>
			</g>
			
				<linearGradient id="SVGID_00000124874840413111070760000016714679443393307824_" gradientUnits="userSpaceOnUse" x1="573.683" y1="87.273" x2="573.683" y2="214.9296">
				<stop  offset="0" style="stop-color:#F2BF2B"/>
				<stop  offset="0" style="stop-color:#EAC13A"/>
				<stop  offset="0.3198" style="stop-color:#FAF28E"/>
				<stop  offset="0.6802" style="stop-color:#D9AA28"/>
				<stop  offset="1" style="stop-color:#F8F298"/>
			</linearGradient>
			<path style="fill:url(#SVGID_00000124874840413111070760000016714679443393307824_);" d="M583.27,138.79v11.07
				c-1.57,0.47-3.25,0.71-5.05,0.71c-2.54,0-4.83-0.64-6.86-1.92c-2.03-1.28-3.63-3.02-4.78-5.21c-1.16-2.19-1.74-4.59-1.74-7.18
				c0-2.64,0.57-5.04,1.7-7.19c1.13-2.16,2.74-3.86,4.82-5.1c2.08-1.25,4.48-1.87,7.19-1.87c2.48,0,4.79,0.67,6.94,2.01l2.35,1.63
				l7.45-10.78l-1.23-1.01c-2.32-1.67-4.72-2.92-7.21-3.74s-5.31-1.23-8.45-1.23c-5.01,0-9.61,1.22-13.81,3.65
				c-4.2,2.43-7.52,5.73-9.96,9.91c-2.44,4.17-3.66,8.75-3.66,13.74c0,4.98,1.24,9.59,3.72,13.81c2.48,4.22,5.83,7.57,10.05,10.04
				c4.23,2.47,8.83,3.7,13.81,3.7c3.26,0,6.37-0.39,9.31-1.16c2.92-0.75,5.47-1.83,7.66-3.25c0.32-0.2,0.55-0.43,0.67-0.69
				c0.13-0.26,0.19-0.59,0.19-0.99v-18.92H583.27z"/>
			<g>
				
					<linearGradient id="SVGID_00000169526070052937143790000005357756450664406453_" gradientUnits="userSpaceOnUse" x1="259.0728" y1="87.273" x2="259.0728" y2="214.9296">
					<stop  offset="0" style="stop-color:#F2BF2B"/>
					<stop  offset="0" style="stop-color:#EAC13A"/>
					<stop  offset="0.3198" style="stop-color:#FAF28E"/>
					<stop  offset="0.6802" style="stop-color:#D9AA28"/>
					<stop  offset="1" style="stop-color:#F8F298"/>
				</linearGradient>
				<path style="fill:url(#SVGID_00000169526070052937143790000005357756450664406453_);" d="M252.06,163.86v-42.19h-20.7l7.2-12.7
					h48.23l-6.73,12.7h-13.92v35.3L252.06,163.86L252.06,163.86z"/>
			</g>
			<g>
				
					<linearGradient id="SVGID_00000031886533447614599620000001463340955805421993_" gradientUnits="userSpaceOnUse" x1="645.1721" y1="87.273" x2="645.1721" y2="214.9296">
					<stop  offset="0" style="stop-color:#F2BF2B"/>
					<stop  offset="0" style="stop-color:#EAC13A"/>
					<stop  offset="0.3198" style="stop-color:#FAF28E"/>
					<stop  offset="0.6802" style="stop-color:#D9AA28"/>
					<stop  offset="1" style="stop-color:#F8F298"/>
				</linearGradient>
				<polygon style="fill:url(#SVGID_00000031886533447614599620000001463340955805421993_);" points="650.82,151.21 639.52,151.21 
					644.92,137.82 				"/>
				<g>
					<defs>
						<polygon id="SVGID_00000036937061913252108010000004200331689913834641_" points="651.76,108.96 673.25,163.86 658.51,163.8 
							644.89,132.91 632.42,163.86 617.27,163.86 638.71,108.96 						"/>
					</defs>
					
						<linearGradient id="SVGID_00000048487446444968807880000003457339383870710914_" gradientUnits="userSpaceOnUse" x1="645.2614" y1="87.273" x2="645.2614" y2="214.9296">
						<stop  offset="0" style="stop-color:#F2BF2B"/>
						<stop  offset="0" style="stop-color:#EAC13A"/>
						<stop  offset="0.3198" style="stop-color:#FAF28E"/>
						<stop  offset="0.6802" style="stop-color:#D9AA28"/>
						<stop  offset="1" style="stop-color:#F8F298"/>
					</linearGradient>
					
						<use xlink:href="#SVGID_00000036937061913252108010000004200331689913834641_"  style="overflow:visible;fill-rule:evenodd;clip-rule:evenodd;fill:url(#SVGID_00000048487446444968807880000003457339383870710914_);"/>
					<clipPath id="SVGID_00000112634227294952970030000015825904631740670127_">
						<use xlink:href="#SVGID_00000036937061913252108010000004200331689913834641_"  style="overflow:visible;"/>
					</clipPath>
				</g>
			</g>
			
				<linearGradient id="SVGID_00000162335885837699244740000008443565804392962476_" gradientUnits="userSpaceOnUse" x1="709.0031" y1="87.273" x2="709.0031" y2="214.9296">
				<stop  offset="0" style="stop-color:#F2BF2B"/>
				<stop  offset="0" style="stop-color:#EAC13A"/>
				<stop  offset="0.3198" style="stop-color:#FAF28E"/>
				<stop  offset="0.6802" style="stop-color:#D9AA28"/>
				<stop  offset="1" style="stop-color:#F8F298"/>
			</linearGradient>
			<polygon style="fill:url(#SVGID_00000162335885837699244740000008443565804392962476_);" points="733.24,108.96 733.24,163.86 
				718.05,163.86 698.51,130.25 698.51,163.86 684.77,163.86 684.77,108.96 699.95,108.96 719.49,142.57 719.49,108.96 			"/>
			<g>
				
					<linearGradient id="SVGID_00000121989226304476584680000017534342740966652554_" gradientUnits="userSpaceOnUse" x1="450.4706" y1="87.273" x2="450.4706" y2="214.9296">
					<stop  offset="0" style="stop-color:#F2BF2B"/>
					<stop  offset="0" style="stop-color:#EAC13A"/>
					<stop  offset="0.3198" style="stop-color:#FAF28E"/>
					<stop  offset="0.6802" style="stop-color:#D9AA28"/>
					<stop  offset="1" style="stop-color:#F8F298"/>
				</linearGradient>
				<path style="fill:url(#SVGID_00000121989226304476584680000017534342740966652554_);" d="M479.47,122.13l-0.04-5.88v-7.29h-5.35
					v6.83l0.04,4.4c0,0.17-0.01,0.33-0.04,0.49h-2.66c-2.3-3.28-5.21-5.94-8.71-8.01c-4.22-2.47-8.81-3.71-13.77-3.71
					c-4.96,0-9.55,1.24-13.75,3.71c-4.2,2.47-7.53,5.81-10.01,10.01c-0.85,1.45-1.55,2.93-2.11,4.47c-0.07,0.18-0.13,0.37-0.19,0.55
					c-0.06,0.17-0.12,0.35-0.17,0.52c-0.59,1.89-0.98,3.86-1.14,5.9c-0.04,0.55-0.07,1.09-0.08,1.65c-0.01,0.19-0.01,0.38-0.01,0.57
					v0.08c0,0.23,0,0.45,0.01,0.67c0.12,4.56,1.34,8.85,3.42,12.6c0.06,0.12,0.13,0.24,0.21,0.36c0.05,0.09,0.11,0.19,0.17,0.28
					c0.11,0.18,0.22,0.37,0.33,0.55c0.01,0.04,0.04,0.07,0.06,0.11c0.15,0.25,0.32,0.49,0.48,0.73v0c0.17,0.24,0.33,0.48,0.5,0.72
					c0.18,0.24,0.36,0.48,0.54,0.72c0.18,0.24,0.37,0.47,0.55,0.69c0.15,0.18,0.3,0.36,0.45,0.53c0.13,0.14,0.25,0.28,0.37,0.42
					c0.03,0.03,0.05,0.06,0.08,0.09c0.13,0.14,0.27,0.29,0.41,0.44c0.3,0.32,0.61,0.63,0.93,0.93c0.15,0.15,0.31,0.29,0.47,0.44
					c0.01,0.02,0.03,0.03,0.05,0.04c0.14,0.13,0.29,0.26,0.44,0.39c0.17,0.15,0.35,0.3,0.53,0.44c0.06,0.05,0.12,0.1,0.18,0.14
					c0.18,0.15,0.37,0.3,0.55,0.44c0.24,0.18,0.48,0.36,0.72,0.53c0.49,0.35,0.98,0.68,1.49,1c0.26,0.16,0.51,0.32,0.78,0.47
					c0.07,0.04,0.15,0.08,0.22,0.13c0.14,0.08,0.29,0.17,0.44,0.25c3.31,1.79,7.02,2.93,10.98,3.23c0.23,0.02,0.46,0.03,0.7,0.04
					c0.23,0.01,0.45,0.02,0.68,0.03h0.05c0.23,0,0.45,0.01,0.68,0.01c0.23,0,0.46,0,0.68-0.01h0.05c0.23-0.01,0.46-0.01,0.68-0.03
					c0.23-0.01,0.47-0.03,0.7-0.04c3.48-0.27,6.79-1.18,9.8-2.63c0.12-0.06,0.23-0.12,0.35-0.17c0.22-0.11,0.44-0.22,0.65-0.33
					c0.02-0.01,0.04-0.02,0.06-0.03c0.05-0.03,0.1-0.06,0.15-0.08c0.22-0.12,0.44-0.24,0.66-0.37c0.96-0.56,1.88-1.17,2.75-1.82
					c0.12-0.09,0.23-0.18,0.35-0.27c0.17-0.13,0.34-0.27,0.51-0.4c0.05-0.04,0.1-0.08,0.15-0.13c0.19-0.15,0.37-0.31,0.56-0.48
					c0.04-0.03,0.07-0.06,0.11-0.09c0.13-0.12,0.26-0.23,0.39-0.36c0.12-0.11,0.24-0.22,0.35-0.33c0.01-0.01,0.02-0.02,0.03-0.03
					c0.15-0.14,0.3-0.29,0.45-0.44c0.16-0.16,0.33-0.33,0.49-0.5c0.09-0.1,0.19-0.2,0.28-0.3c0.1-0.1,0.19-0.21,0.28-0.31
					c0.08-0.09,0.15-0.17,0.23-0.26c0.17-0.19,0.33-0.39,0.49-0.58c0,0,0,0,0,0c0.19-0.23,0.37-0.46,0.55-0.69
					c0.27-0.35,0.53-0.71,0.78-1.07c0.25-0.36,0.49-0.73,0.73-1.1c0.03-0.04,0.05-0.07,0.07-0.11c0.12-0.18,0.22-0.36,0.33-0.55
					c0.06-0.09,0.11-0.19,0.17-0.28c0.07-0.12,0.14-0.24,0.21-0.36c2.08-3.75,3.3-8.04,3.42-12.6c0-0.22,0.01-0.44,0.01-0.67v-0.04
					c0-0.3,0-0.6-0.01-0.9c0-0.12-0.01-0.25-0.01-0.37c0-0.15-0.01-0.3-0.03-0.45c0-0.02,0-0.03,0-0.05
					c-0.01-0.17-0.02-0.33-0.03-0.49c-0.01-0.1-0.02-0.19-0.03-0.29c-0.01-0.12-0.02-0.23-0.03-0.35c0,0,0-0.01,0-0.02
					c-0.22-2.13-0.68-4.19-1.38-6.18h4.6V122.13z M449.31,151.54c-8.35,0-15.12-6.77-15.12-15.11c0-8.35,6.77-15.12,15.12-15.12
					c8.35,0,15.12,6.77,15.12,15.12C464.43,144.77,457.66,151.54,449.31,151.54z"/>
				
					<linearGradient id="SVGID_00000123420978806355258040000005211769076547164840_" gradientUnits="userSpaceOnUse" x1="448.0402" y1="87.273" x2="448.0402" y2="214.9296">
					<stop  offset="0" style="stop-color:#F2BF2B"/>
					<stop  offset="0" style="stop-color:#EAC13A"/>
					<stop  offset="0.3198" style="stop-color:#FAF28E"/>
					<stop  offset="0.6802" style="stop-color:#D9AA28"/>
					<stop  offset="1" style="stop-color:#F8F298"/>
				</linearGradient>
				
					<polygon style="fill-rule:evenodd;clip-rule:evenodd;fill:url(#SVGID_00000123420978806355258040000005211769076547164840_);" points="
					431.96,92.36 465.52,100.98 464.84,104.3 430.56,99.39 				"/>
			</g>
			
				<linearGradient id="SVGID_00000036241303369036047670000002426957371616557202_" gradientUnits="userSpaceOnUse" x1="515.2219" y1="87.273" x2="515.2219" y2="214.9296">
				<stop  offset="0" style="stop-color:#F2BF2B"/>
				<stop  offset="0" style="stop-color:#EAC13A"/>
				<stop  offset="0.3198" style="stop-color:#FAF28E"/>
				<stop  offset="0.6802" style="stop-color:#D9AA28"/>
				<stop  offset="1" style="stop-color:#F8F298"/>
			</linearGradient>
			<polygon style="fill:url(#SVGID_00000036241303369036047670000002426957371616557202_);" points="539.45,108.96 539.45,163.86 
				524.27,163.86 504.73,130.25 504.73,163.86 490.99,163.86 490.99,108.96 506.17,108.96 525.71,142.57 525.71,108.96 			"/>
			
				<linearGradient id="SVGID_00000026146445923153588520000004744751279043121806_" gradientUnits="userSpaceOnUse" x1="297.6097" y1="121.6664" x2="297.6097" y2="121.6664">
				<stop  offset="0" style="stop-color:#F2BF2B"/>
				<stop  offset="0" style="stop-color:#EAC13A"/>
				<stop  offset="0.3198" style="stop-color:#FAF28E"/>
				<stop  offset="0.6802" style="stop-color:#D9AA28"/>
				<stop  offset="1" style="stop-color:#F8F298"/>
			</linearGradient>
			<path style="fill:url(#SVGID_00000026146445923153588520000004744751279043121806_);" d="M297.61,121.67"/>
			
				<linearGradient id="SVGID_00000005966167275951159870000009758372491363836599_" gradientUnits="userSpaceOnUse" x1="477.3594" y1="87.273" x2="477.3594" y2="214.9296">
				<stop  offset="0" style="stop-color:#F2BF2B"/>
				<stop  offset="0" style="stop-color:#EAC13A"/>
				<stop  offset="0.3198" style="stop-color:#FAF28E"/>
				<stop  offset="0.6802" style="stop-color:#D9AA28"/>
				<stop  offset="1" style="stop-color:#F8F298"/>
			</linearGradient>
			<polygon style="fill:url(#SVGID_00000005966167275951159870000009758372491363836599_);" points="477.38,108.96 477.38,122.13 
				477.34,116.25 477.34,108.96 			"/>
			
				<linearGradient id="SVGID_00000090269969091868103320000018016532808816151430_" gradientUnits="userSpaceOnUse" x1="592.9065" y1="138.7926" x2="592.9065" y2="138.7926">
				<stop  offset="0" style="stop-color:#F2BF2B"/>
				<stop  offset="0" style="stop-color:#EAC13A"/>
				<stop  offset="0.3198" style="stop-color:#FAF28E"/>
				<stop  offset="0.6802" style="stop-color:#D9AA28"/>
				<stop  offset="1" style="stop-color:#F8F298"/>
			</linearGradient>
			<path style="fill:url(#SVGID_00000090269969091868103320000018016532808816151430_);" d="M592.91,138.79"/>
		</g>
	</g>
	<g>
		
			<linearGradient id="SVGID_00000121994934678365536500000017612428355075830180_" gradientUnits="userSpaceOnUse" x1="78.7399" y1="5.4754" x2="116.9842" y2="345.7842">
			<stop  offset="0" style="stop-color:#F2BF2B"/>
			<stop  offset="0" style="stop-color:#EAC13A"/>
			<stop  offset="0.3198" style="stop-color:#FAF28E"/>
			<stop  offset="0.6802" style="stop-color:#D9AA28"/>
			<stop  offset="1" style="stop-color:#F8F298"/>
		</linearGradient>
		<polygon style="fill:url(#SVGID_00000121994934678365536500000017612428355075830180_);" points="113.07,73.84 63.89,101.14 
			63.89,110.46 113.07,83.16 		"/>
		
			<linearGradient id="SVGID_00000168110134695073815640000017411476311798378915_" gradientUnits="userSpaceOnUse" x1="77.2336" y1="5.6447" x2="115.4779" y2="345.9535">
			<stop  offset="0" style="stop-color:#F2BF2B"/>
			<stop  offset="0" style="stop-color:#EAC13A"/>
			<stop  offset="0.3198" style="stop-color:#FAF28E"/>
			<stop  offset="0.6802" style="stop-color:#D9AA28"/>
			<stop  offset="1" style="stop-color:#F8F298"/>
		</linearGradient>
		<polygon style="fill:url(#SVGID_00000168110134695073815640000017411476311798378915_);" points="63.89,124.03 113.07,96.73 
			113.07,87.42 63.89,114.72 		"/>
		
			<linearGradient id="SVGID_00000032645084741532774520000016152201885628016810_" gradientUnits="userSpaceOnUse" x1="104.7998" y1="2.5468" x2="143.044" y2="342.8555">
			<stop  offset="0" style="stop-color:#F2BF2B"/>
			<stop  offset="0" style="stop-color:#EAC13A"/>
			<stop  offset="0.3198" style="stop-color:#FAF28E"/>
			<stop  offset="0.6802" style="stop-color:#D9AA28"/>
			<stop  offset="1" style="stop-color:#F8F298"/>
		</linearGradient>
		<path style="fill:url(#SVGID_00000032645084741532774520000016152201885628016810_);" d="M118.48,190.95h-16.75v-83.31l-9.32,5.22
			v78.09h-6.58V116.5l-9.32,5.22v69.22v2.66v2.66h89.12v-2.66v-2.66V98.62l-47.23-24.77L118.48,190.95z M127.74,88.34l28.58,14.42
			v88.18h-28.6L127.74,88.34z"/>
		
			<linearGradient id="SVGID_00000079473254737712389090000015525426851330539917_" gradientUnits="userSpaceOnUse" x1="129.2489" y1="-0.2008" x2="167.4931" y2="340.1079">
			<stop  offset="0" style="stop-color:#F2BF2B"/>
			<stop  offset="0" style="stop-color:#EAC13A"/>
			<stop  offset="0.3198" style="stop-color:#FAF28E"/>
			<stop  offset="0.6802" style="stop-color:#D9AA28"/>
			<stop  offset="1" style="stop-color:#F8F298"/>
		</linearGradient>
		<polygon style="fill:url(#SVGID_00000079473254737712389090000015525426851330539917_);" points="135.89,120.01 148.21,126.25 
			148.21,107.45 135.89,101.22 		"/>
		
			<linearGradient id="SVGID_00000081648404781085904540000013730827501294566835_" gradientUnits="userSpaceOnUse" x1="108.2968" y1="2.1538" x2="146.541" y2="342.4626">
			<stop  offset="0" style="stop-color:#F2BF2B"/>
			<stop  offset="0" style="stop-color:#EAC13A"/>
			<stop  offset="0.3198" style="stop-color:#FAF28E"/>
			<stop  offset="0.6802" style="stop-color:#D9AA28"/>
			<stop  offset="1" style="stop-color:#F8F298"/>
		</linearGradient>
		<path style="fill:url(#SVGID_00000081648404781085904540000013730827501294566835_);" d="M121.02,32.65
			c-45.68,0-82.71,37.03-82.71,82.71c0,29.3,15.23,55.04,38.21,69.74v-7.42c-3.4-2.43-6.62-5.17-9.63-8.18
			c-14.46-14.46-22.42-33.68-22.42-54.13c0-20.45,7.96-39.67,22.42-54.13s33.68-22.42,54.13-22.42c20.45,0,39.67,7.96,54.13,22.42
			c14.46,14.46,22.42,33.68,22.42,54.13c0,20.45-7.96,39.67-22.42,54.13c-2.98,2.98-6.15,5.68-9.5,8.09v7.43
			c22.9-14.71,38.08-40.41,38.08-69.65C203.73,69.68,166.7,32.65,121.02,32.65z"/>
	</g>
</g>
</svg>
