<?xml version="1.0" encoding="utf-8"?>
<!-- Generator: Adobe Illustrator 27.1.0, SVG Export Plug-In . SVG Version: 6.00 Build 0)  -->
<svg version="1.1" id="Layer_1" xmlns="http://www.w3.org/2000/svg" xmlns:xlink="http://www.w3.org/1999/xlink" x="0px" y="0px"
	 viewBox="0 0 1492.6 1189.2" style="enable-background:new 0 0 1492.6 1189.2;" xml:space="preserve">
<style type="text/css">
	.st0{fill:url(#SVGID_1_);}
	.st1{fill:url(#SVGID_00000010268339088256846040000002070662320325024443_);}
	.st2{fill:url(#SVGID_00000156582746977081046360000011089741974399220908_);}
	.st3{fill:url(#SVGID_00000155143755502744970090000015720204471338315424_);}
	.st4{fill:url(#SVGID_00000089557517814078332270000011816623028000738446_);}
	.st5{fill:url(#SVGID_00000050627021586362882770000003516097818848901782_);}
	.st6{fill:url(#SVGID_00000012447453321160415580000005611711340646222783_);}
	.st7{fill:url(#SVGID_00000181083266220157821550000009227985887390498443_);}
	.st8{fill:url(#SVGID_00000029742811358054865410000018200201272651070880_);}
	.st9{fill:url(#SVGID_00000165929311553831377230000017780551971292741272_);}
	.st10{fill:url(#SVGID_00000034774054411318439800000017363696037584405911_);}
	.st11{fill:url(#SVGID_00000089533331003492475570000010663156610048310436_);}
	.st12{fill:url(#SVGID_00000028306448804919714120000001846009463288636053_);}
	.st13{fill:url(#SVGID_00000173870556180528052410000009814098943812463279_);}
	.st14{fill:url(#SVGID_00000036959455158568148660000013737031925513808274_);}
	.st15{fill:url(#SVGID_00000135660388050885640550000011885758468101829251_);}
	.st16{fill:url(#SVGID_00000026136957637180314070000003402133392269445036_);}
	.st17{fill:url(#SVGID_00000109001573963978478010000018018637664097081009_);}
	.st18{fill:url(#SVGID_00000034783312489010077770000017454893078463563680_);}
	.st19{fill:url(#SVGID_00000039107107921698795320000004532137753394451375_);}
	.st20{fill:url(#SVGID_00000146491080680334690480000001955887857454684815_);}
	.st21{fill:url(#SVGID_00000132068734778313864750000004420892624032316838_);}
	.st22{fill:url(#SVGID_00000153668729158031985010000001951721576058106783_);}
	.st23{fill:url(#SVGID_00000013180098108798641930000009058438982004455103_);}
	.st24{fill:url(#SVGID_00000182492435583784837050000003830257118821661346_);}
	.st25{fill:url(#SVGID_00000116234545049604850260000004138591305500889472_);}
	.st26{fill:url(#SVGID_00000046308369364992723970000012501620549219435181_);}
	.st27{fill:url(#SVGID_00000129185843793634194510000011536425905465169542_);}
	.st28{fill:url(#SVGID_00000079467933661154183980000012411045959851299500_);}
	.st29{fill-rule:evenodd;clip-rule:evenodd;fill:url(#SVGID_00000089561182203451608970000013692790784550989443_);}
	.st30{fill:url(#SVGID_00000021830036169175442580000007844213385456024253_);}
	.st31{fill:url(#SVGID_00000010287736213858243270000013914461606950376603_);}
	.st32{fill:url(#SVGID_00000106135019303800249290000008541031183441515413_);}
	.st33{fill:url(#SVGID_00000034057615382828040270000000248721921321605788_);}
	.st34{fill:url(#SVGID_00000089543434260214709130000010620053647154370716_);}
	.st35{fill:url(#SVGID_00000152247658748333084740000006212466585907858823_);}
	.st36{fill:url(#SVGID_00000098205107614349468850000000548501527835073215_);}
	.st37{fill:url(#SVGID_00000183236077715118795820000012205441547950518709_);}
	.st38{fill:url(#SVGID_00000000184402319514579710000003700906160340447143_);}
</style>
<g>
	<g>
		<g>
			<linearGradient id="SVGID_1_" gradientUnits="userSpaceOnUse" x1="386.6972" y1="750.3848" x2="390.1811" y2="1365.8687">
				<stop  offset="0" style="stop-color:#F4C22E"/>
				<stop  offset="0" style="stop-color:#ECC33E"/>
				<stop  offset="0.3198" style="stop-color:#FCF38F"/>
				<stop  offset="0.6802" style="stop-color:#DCAC26"/>
				<stop  offset="1" style="stop-color:#FAF399"/>
			</linearGradient>
			<path class="st0" d="M385.9,1044.6l-12.9-33.2h4.8l8.6,24.2c0.7,1.9,1.3,3.8,1.7,5.4c0.5-1.8,1.1-3.6,1.8-5.4l9-24.2h4.5
				l-13,33.2H385.9z"/>
			
				<linearGradient id="SVGID_00000080173242612640630320000013430795622948137388_" gradientUnits="userSpaceOnUse" x1="422.9232" y1="750.1797" x2="426.407" y2="1365.6636">
				<stop  offset="0" style="stop-color:#F4C22E"/>
				<stop  offset="0" style="stop-color:#ECC33E"/>
				<stop  offset="0.3198" style="stop-color:#FCF38F"/>
				<stop  offset="0.6802" style="stop-color:#DCAC26"/>
				<stop  offset="1" style="stop-color:#FAF399"/>
			</linearGradient>
			<path style="fill:url(#SVGID_00000080173242612640630320000013430795622948137388_);" d="M437.1,1016.1v-4.7h4.4v3.7
				c0,2.4-0.3,4-0.8,5c-1.5,2.6-3.9,4-7.2,4.1v6.3c0,3.4-0.4,6.1-1.1,8c-0.8,2-2.1,3.6-4.1,4.8c-2,1.2-4.6,1.9-7.8,1.9
				c-6.2,0-10.1-2.1-11.9-6.3c-0.8-2-1.3-4.8-1.3-8.3v-19.2h4.4v19.2c0,2.9,0.3,5,0.8,6.4c0.5,1.3,1.4,2.4,2.7,3.1
				c1.3,0.7,2.9,1.1,4.8,1.1c3.3,0,5.6-0.7,6.9-2.2c1.4-1.5,2.1-4.4,2.1-8.5v-19.2h4.4v11.2c2.4-0.2,4.1-1.2,5.1-2.8
				c0.4-0.6,0.6-1.8,0.6-3.6H437.1z M413.2,1009.3c0-1.6,0.4-2.8,1.3-3.8c0.9-0.9,2-1.4,3.3-1.4c0.9,0,2.2,0.4,3.8,1.2
				c0.9,0.5,1.6,0.7,2.1,0.7c0.5,0,0.9-0.1,1.1-0.4c0.3-0.3,0.4-0.8,0.5-1.6h2.9c0,1.7-0.5,3-1.3,3.9c-0.8,0.9-1.9,1.3-3.1,1.3
				c-1,0-2.2-0.4-3.8-1.3c-1-0.5-1.8-0.8-2.2-0.8c-0.5,0-0.9,0.2-1.2,0.5c-0.3,0.4-0.5,0.9-0.5,1.6H413.2z"/>
			
				<linearGradient id="SVGID_00000048482188511914927750000017058851620002453931_" gradientUnits="userSpaceOnUse" x1="458.461" y1="749.9786" x2="461.9449" y2="1365.4624">
				<stop  offset="0" style="stop-color:#F4C22E"/>
				<stop  offset="0" style="stop-color:#ECC33E"/>
				<stop  offset="0.3198" style="stop-color:#FCF38F"/>
				<stop  offset="0.6802" style="stop-color:#DCAC26"/>
				<stop  offset="1" style="stop-color:#FAF399"/>
			</linearGradient>
			<path style="fill:url(#SVGID_00000048482188511914927750000017058851620002453931_);" d="M446.9,1044.6v-33.2h4.5l17.5,26.1
				v-26.1h4.2v33.2h-4.5l-17.5-26.1v26.1H446.9z"/>
			
				<linearGradient id="SVGID_00000120560179647667027040000001533154538233406885_" gradientUnits="userSpaceOnUse" x1="493.2116" y1="749.7819" x2="496.6954" y2="1365.2657">
				<stop  offset="0" style="stop-color:#F4C22E"/>
				<stop  offset="0" style="stop-color:#ECC33E"/>
				<stop  offset="0.3198" style="stop-color:#FCF38F"/>
				<stop  offset="0.6802" style="stop-color:#DCAC26"/>
				<stop  offset="1" style="stop-color:#FAF399"/>
			</linearGradient>
			<path style="fill:url(#SVGID_00000120560179647667027040000001533154538233406885_);" d="M496.1,1031.6v-3.9l14.1,0v12.3
				c-2.2,1.7-4.4,3-6.7,3.9c-2.3,0.9-4.7,1.3-7.1,1.3c-3.3,0-6.2-0.7-8.9-2.1c-2.7-1.4-4.7-3.4-6-6.1c-1.4-2.6-2-5.6-2-8.9
				c0-3.2,0.7-6.3,2-9.1c1.4-2.8,3.3-4.9,5.8-6.2c2.5-1.4,5.5-2,8.8-2c2.4,0,4.6,0.4,6.5,1.2c1.9,0.8,3.5,1.9,4.6,3.3
				c1.1,1.4,1.9,3.2,2.5,5.4l-4,1.1c-0.5-1.7-1.1-3-1.9-4c-0.7-1-1.8-1.7-3.2-2.3c-1.4-0.6-2.9-0.9-4.6-0.9c-2,0-3.7,0.3-5.2,0.9
				c-1.5,0.6-2.6,1.4-3.5,2.4c-0.9,1-1.6,2.1-2.1,3.3c-0.8,2.1-1.3,4.3-1.3,6.7c0,3,0.5,5.4,1.5,7.4c1,2,2.5,3.5,4.5,4.4
				c2,1,4,1.5,6.2,1.5c1.9,0,3.8-0.4,5.6-1.1c1.8-0.7,3.2-1.5,4.1-2.3v-6.2H496.1z"/>
			
				<linearGradient id="SVGID_00000071557323164600534640000003189738741782941883_" gradientUnits="userSpaceOnUse" x1="542.2354" y1="749.5043" x2="545.7192" y2="1364.9883">
				<stop  offset="0" style="stop-color:#F4C22E"/>
				<stop  offset="0" style="stop-color:#ECC33E"/>
				<stop  offset="0.3198" style="stop-color:#FCF38F"/>
				<stop  offset="0.6802" style="stop-color:#DCAC26"/>
				<stop  offset="1" style="stop-color:#FAF399"/>
			</linearGradient>
			<path style="fill:url(#SVGID_00000071557323164600534640000003189738741782941883_);" d="M545.1,1031.6v-3.9l14.1,0v12.3
				c-2.2,1.7-4.4,3-6.7,3.9c-2.3,0.9-4.7,1.3-7.1,1.3c-3.3,0-6.2-0.7-8.9-2.1c-2.7-1.4-4.7-3.4-6-6.1c-1.4-2.6-2-5.6-2-8.9
				c0-3.2,0.7-6.3,2-9.1c1.4-2.8,3.3-4.9,5.8-6.2c2.5-1.4,5.5-2,8.8-2c2.4,0,4.6,0.4,6.5,1.2c1.9,0.8,3.5,1.9,4.6,3.3
				c1.1,1.4,1.9,3.2,2.5,5.4l-4,1.1c-0.5-1.7-1.1-3-1.9-4c-0.7-1-1.8-1.7-3.2-2.3c-1.4-0.6-2.9-0.9-4.6-0.9c-2,0-3.7,0.3-5.2,0.9
				c-1.5,0.6-2.6,1.4-3.5,2.4c-0.9,1-1.6,2.1-2.1,3.3c-0.8,2.1-1.3,4.3-1.3,6.7c0,3,0.5,5.4,1.5,7.4c1,2,2.5,3.5,4.5,4.4
				c2,1,4,1.5,6.2,1.5c1.9,0,3.8-0.4,5.6-1.1c1.8-0.7,3.2-1.5,4.1-2.3v-6.2H545.1z"/>
			
				<linearGradient id="SVGID_00000066507527535670373300000016230275742304397490_" gradientUnits="userSpaceOnUse" x1="567.0419" y1="749.364" x2="570.5258" y2="1364.8478">
				<stop  offset="0" style="stop-color:#F4C22E"/>
				<stop  offset="0" style="stop-color:#ECC33E"/>
				<stop  offset="0.3198" style="stop-color:#FCF38F"/>
				<stop  offset="0.6802" style="stop-color:#DCAC26"/>
				<stop  offset="1" style="stop-color:#FAF399"/>
			</linearGradient>
			<path style="fill:url(#SVGID_00000066507527535670373300000016230275742304397490_);" d="M566.4,1044.6v-33.2h4.4v33.2H566.4z"/>
			
				<linearGradient id="SVGID_00000014603744963678035720000008871439096747727494_" gradientUnits="userSpaceOnUse" x1="588.8067" y1="749.2407" x2="592.2906" y2="1364.7246">
				<stop  offset="0" style="stop-color:#F4C22E"/>
				<stop  offset="0" style="stop-color:#ECC33E"/>
				<stop  offset="0.3198" style="stop-color:#FCF38F"/>
				<stop  offset="0.6802" style="stop-color:#DCAC26"/>
				<stop  offset="1" style="stop-color:#FAF399"/>
			</linearGradient>
			<path style="fill:url(#SVGID_00000014603744963678035720000008871439096747727494_);" d="M574.9,1044.6l12.8-33.2h4.7l13.6,33.2
				h-5l-3.9-10.1h-13.9l-3.7,10.1H574.9z M584.5,1031h11.3l-3.5-9.2c-1.1-2.8-1.8-5.1-2.4-6.9c-0.4,2.1-1,4.2-1.8,6.3L584.5,1031z
				 M587.3,1009.3l3-6.3h5.4l-5,6.3H587.3z"/>
			
				<linearGradient id="SVGID_00000045597959265016883000000016182454656778061198_" gradientUnits="userSpaceOnUse" x1="630.797" y1="749.0031" x2="634.2809" y2="1364.4869">
				<stop  offset="0" style="stop-color:#F4C22E"/>
				<stop  offset="0" style="stop-color:#ECC33E"/>
				<stop  offset="0.3198" style="stop-color:#FCF38F"/>
				<stop  offset="0.6802" style="stop-color:#DCAC26"/>
				<stop  offset="1" style="stop-color:#FAF399"/>
			</linearGradient>
			<path style="fill:url(#SVGID_00000045597959265016883000000016182454656778061198_);" d="M630.1,1044.6v-29.3h-11v-3.9h26.3v3.9
				h-11v29.3H630.1z"/>
			
				<linearGradient id="SVGID_00000127757996635034167590000017914148370225580942_" gradientUnits="userSpaceOnUse" x1="663.0232" y1="748.8207" x2="666.5071" y2="1364.3046">
				<stop  offset="0" style="stop-color:#F4C22E"/>
				<stop  offset="0" style="stop-color:#ECC33E"/>
				<stop  offset="0.3198" style="stop-color:#FCF38F"/>
				<stop  offset="0.6802" style="stop-color:#DCAC26"/>
				<stop  offset="1" style="stop-color:#FAF399"/>
			</linearGradient>
			<path style="fill:url(#SVGID_00000127757996635034167590000017914148370225580942_);" d="M650,1044.6v-33.2h14.7
				c3,0,5.2,0.3,6.8,0.9s2.8,1.7,3.7,3.2c0.9,1.5,1.4,3.2,1.4,5c0,2.4-0.8,4.3-2.3,6s-3.9,2.6-7.1,3.1c1.2,0.6,2,1.1,2.7,1.7
				c1.3,1.2,2.5,2.7,3.7,4.4l5.8,9h-5.5l-4.4-6.9c-1.3-2-2.3-3.5-3.2-4.6c-0.8-1.1-1.6-1.8-2.2-2.2c-0.7-0.4-1.3-0.7-2-0.9
				c-0.5-0.1-1.3-0.2-2.4-0.2h-5.1v14.8H650z M654.4,1026h9.5c2,0,3.6-0.2,4.7-0.6c1.1-0.4,2-1.1,2.6-2c0.6-0.9,0.9-1.9,0.9-3
				c0-1.6-0.6-2.9-1.7-3.9c-1.1-1-2.9-1.5-5.4-1.5h-10.5V1026z"/>
			
				<linearGradient id="SVGID_00000063596275650561347960000011911475588801659563_" gradientUnits="userSpaceOnUse" x1="684.808" y1="748.6973" x2="688.2919" y2="1364.1813">
				<stop  offset="0" style="stop-color:#F4C22E"/>
				<stop  offset="0" style="stop-color:#ECC33E"/>
				<stop  offset="0.3198" style="stop-color:#FCF38F"/>
				<stop  offset="0.6802" style="stop-color:#DCAC26"/>
				<stop  offset="1" style="stop-color:#FAF399"/>
			</linearGradient>
			<path style="fill:url(#SVGID_00000063596275650561347960000011911475588801659563_);" d="M684.2,1052v-4.6h4.6v4.6H684.2z
				 M684.3,1044.6v-33.2h4.4v33.2H684.3z"/>
			
				<linearGradient id="SVGID_00000111888545361333650260000003980757271205608889_" gradientUnits="userSpaceOnUse" x1="711.8771" y1="748.5441" x2="715.361" y2="1364.028">
				<stop  offset="0" style="stop-color:#F4C22E"/>
				<stop  offset="0" style="stop-color:#ECC33E"/>
				<stop  offset="0.3198" style="stop-color:#FCF38F"/>
				<stop  offset="0.6802" style="stop-color:#DCAC26"/>
				<stop  offset="1" style="stop-color:#FAF399"/>
			</linearGradient>
			<path style="fill:url(#SVGID_00000111888545361333650260000003980757271205608889_);" d="M707.2,1034.6v-4.1h12.5v4.1H707.2z"/>
			
				<linearGradient id="SVGID_00000097462403598584915740000013322894839296160916_" gradientUnits="userSpaceOnUse" x1="748.4119" y1="748.3373" x2="751.8958" y2="1363.8212">
				<stop  offset="0" style="stop-color:#F4C22E"/>
				<stop  offset="0" style="stop-color:#ECC33E"/>
				<stop  offset="0.3198" style="stop-color:#FCF38F"/>
				<stop  offset="0.6802" style="stop-color:#DCAC26"/>
				<stop  offset="1" style="stop-color:#FAF399"/>
			</linearGradient>
			<path style="fill:url(#SVGID_00000097462403598584915740000013322894839296160916_);" d="M737.5,1044.6v-33.2H750
				c2.5,0,4.6,0.3,6.1,1c1.5,0.7,2.7,1.7,3.6,3.1c0.9,1.4,1.3,2.9,1.3,4.4c0,1.4-0.4,2.8-1.2,4c-0.8,1.3-1.9,2.3-3.5,3
				c2,0.6,3.6,1.6,4.6,3c1.1,1.4,1.6,3.1,1.6,5c0,1.6-0.3,3-1,4.3c-0.7,1.3-1.5,2.4-2.4,3.1c-1,0.7-2.2,1.3-3.6,1.6
				c-1.5,0.4-3.2,0.6-5.4,0.6H737.5z M741.9,1025.3h7.2c2,0,3.3-0.1,4.2-0.4c1.1-0.3,2-0.9,2.5-1.7c0.6-0.8,0.9-1.7,0.9-2.9
				c0-1.1-0.3-2.1-0.8-2.9c-0.5-0.8-1.3-1.4-2.3-1.7c-1-0.3-2.7-0.5-5.1-0.5h-6.6V1025.3z M741.9,1040.7h8.3c1.4,0,2.4-0.1,3-0.2
				c1-0.2,1.9-0.5,2.5-0.9c0.7-0.4,1.2-1,1.7-1.8c0.4-0.8,0.7-1.7,0.7-2.8c0-1.2-0.3-2.3-1-3.2c-0.6-0.9-1.5-1.6-2.6-1.9
				c-1.1-0.4-2.7-0.6-4.9-0.6h-7.7V1040.7z"/>
			
				<linearGradient id="SVGID_00000088105929786207995510000016727842267758383772_" gradientUnits="userSpaceOnUse" x1="779.4947" y1="748.1614" x2="782.9786" y2="1363.6453">
				<stop  offset="0" style="stop-color:#F4C22E"/>
				<stop  offset="0" style="stop-color:#ECC33E"/>
				<stop  offset="0.3198" style="stop-color:#FCF38F"/>
				<stop  offset="0.6802" style="stop-color:#DCAC26"/>
				<stop  offset="1" style="stop-color:#FAF399"/>
			</linearGradient>
			<path style="fill:url(#SVGID_00000088105929786207995510000016727842267758383772_);" d="M768.8,1044.6v-33.2h24v3.9h-19.6v10.2
				h18.4v3.9h-18.4v11.3h20.4v3.9H768.8z M780.7,1008.7l-3,1.5h-4l4.7-2.8h4.4l4.7,2.8h-4L780.7,1008.7z M783,1006.6H780l-5.2-3.6
				h5.1L783,1006.6z"/>
			
				<linearGradient id="SVGID_00000145054927483082134240000005579627973436500124_" gradientUnits="userSpaceOnUse" x1="811.1074" y1="747.9824" x2="814.5913" y2="1363.4663">
				<stop  offset="0" style="stop-color:#F4C22E"/>
				<stop  offset="0" style="stop-color:#ECC33E"/>
				<stop  offset="0.3198" style="stop-color:#FCF38F"/>
				<stop  offset="0.6802" style="stop-color:#DCAC26"/>
				<stop  offset="1" style="stop-color:#FAF399"/>
			</linearGradient>
			<path style="fill:url(#SVGID_00000145054927483082134240000005579627973436500124_);" d="M799.6,1044.6v-33.2h4.5l17.5,26.1
				v-26.1h4.2v33.2h-4.5l-17.5-26.1v26.1H799.6z"/>
			
				<linearGradient id="SVGID_00000085236279787403795520000004918812758583112866_" gradientUnits="userSpaceOnUse" x1="854.421" y1="747.7372" x2="857.9048" y2="1363.2212">
				<stop  offset="0" style="stop-color:#F4C22E"/>
				<stop  offset="0" style="stop-color:#ECC33E"/>
				<stop  offset="0.3198" style="stop-color:#FCF38F"/>
				<stop  offset="0.6802" style="stop-color:#DCAC26"/>
				<stop  offset="1" style="stop-color:#FAF399"/>
			</linearGradient>
			<path style="fill:url(#SVGID_00000085236279787403795520000004918812758583112866_);" d="M853.7,1044.6v-29.3h-11v-3.9h26.3v3.9
				h-11v29.3H853.7z"/>
			
				<linearGradient id="SVGID_00000010287766940987428670000008988264022752129213_" gradientUnits="userSpaceOnUse" x1="889.1953" y1="747.5405" x2="892.6792" y2="1363.0243">
				<stop  offset="0" style="stop-color:#F4C22E"/>
				<stop  offset="0" style="stop-color:#ECC33E"/>
				<stop  offset="0.3198" style="stop-color:#FCF38F"/>
				<stop  offset="0.6802" style="stop-color:#DCAC26"/>
				<stop  offset="1" style="stop-color:#FAF399"/>
			</linearGradient>
			<path style="fill:url(#SVGID_00000010287766940987428670000008988264022752129213_);" d="M903.4,1016.1v-4.7h4.4v3.7
				c0,2.4-0.3,4-0.8,5c-1.5,2.6-3.9,4-7.2,4.1v6.3c0,3.4-0.4,6.1-1.1,8c-0.8,2-2.1,3.6-4.1,4.8c-2,1.2-4.6,1.9-7.8,1.9
				c-6.2,0-10.1-2.1-11.9-6.3c-0.8-2-1.3-4.8-1.3-8.3v-19.2h4.4v19.2c0,2.9,0.3,5,0.8,6.4c0.5,1.3,1.4,2.4,2.7,3.1
				c1.3,0.7,2.9,1.1,4.8,1.1c3.3,0,5.6-0.7,6.9-2.2c1.4-1.5,2.1-4.4,2.1-8.5v-19.2h4.4v11.2c2.4-0.2,4.1-1.2,5.1-2.8
				c0.4-0.6,0.6-1.8,0.6-3.6H903.4z"/>
			
				<linearGradient id="SVGID_00000152236599238707800900000016552931692210540189_" gradientUnits="userSpaceOnUse" x1="928.6352" y1="747.3172" x2="932.1191" y2="1362.801">
				<stop  offset="0" style="stop-color:#F4C22E"/>
				<stop  offset="0" style="stop-color:#ECC33E"/>
				<stop  offset="0.3198" style="stop-color:#FCF38F"/>
				<stop  offset="0.6802" style="stop-color:#DCAC26"/>
				<stop  offset="1" style="stop-color:#FAF399"/>
			</linearGradient>
			<path style="fill:url(#SVGID_00000152236599238707800900000016552931692210540189_);" d="M944,1015.7v-4.7h4.4v3.7
				c0,1.9-0.3,3.3-0.9,4.3c-0.8,1.4-2.3,2.6-4.4,3.8c0.4,1.6,0.6,3.4,0.6,5.2c0,3.4-0.7,6.4-2.1,9.1c-1.4,2.7-3.3,4.7-5.8,6
				c-2.5,1.4-5.2,2.1-8.1,2.1c-3.1,0-5.9-0.8-8.4-2.3s-4.3-3.6-5.6-6.2c-1.3-2.6-1.9-5.4-1.9-8.3c0-5.4,1.5-9.8,4.4-13
				c2.9-3.1,6.7-4.7,11.5-4.7c3.4,0,6.5,0.9,9.1,2.8c2.7,1.9,4.5,4.4,5.6,7.5c1.4-0.7,2.3-1.5,2.9-2.4c0.5-0.7,0.7-1.7,0.7-3H944z
				 M916.5,1028.5c0,3.9,1.1,7.1,3.2,9.5c2.1,2.3,4.8,3.4,8.1,3.4c3.4,0,6.1-1.2,8.2-3.5c2.1-2.4,3.2-5.7,3.2-9.9
				c0-5.6-1.8-9.5-5.4-11.8c-1.8-1.1-3.7-1.7-5.9-1.7c-3.4,0-6,1.1-8,3.2C917.6,1020.2,916.5,1023.8,916.5,1028.5z"/>
			
				<linearGradient id="SVGID_00000093890356639071020240000001962672528662086283_" gradientUnits="userSpaceOnUse" x1="964.5513" y1="747.1139" x2="968.0351" y2="1362.5978">
				<stop  offset="0" style="stop-color:#F4C22E"/>
				<stop  offset="0" style="stop-color:#ECC33E"/>
				<stop  offset="0.3198" style="stop-color:#FCF38F"/>
				<stop  offset="0.6802" style="stop-color:#DCAC26"/>
				<stop  offset="1" style="stop-color:#FAF399"/>
			</linearGradient>
			<path style="fill:url(#SVGID_00000093890356639071020240000001962672528662086283_);" d="M953,1044.6v-33.2h4.5l17.5,26.1v-26.1
				h4.2v33.2h-4.5l-17.5-26.1v26.1H953z"/>
			
				<linearGradient id="SVGID_00000096025200840892705340000017015102752686797479_" gradientUnits="userSpaceOnUse" x1="999.3018" y1="746.9172" x2="1002.7857" y2="1362.4011">
				<stop  offset="0" style="stop-color:#F4C22E"/>
				<stop  offset="0" style="stop-color:#ECC33E"/>
				<stop  offset="0.3198" style="stop-color:#FCF38F"/>
				<stop  offset="0.6802" style="stop-color:#DCAC26"/>
				<stop  offset="1" style="stop-color:#FAF399"/>
			</linearGradient>
			<path style="fill:url(#SVGID_00000096025200840892705340000017015102752686797479_);" d="M1002.2,1031.6v-3.9l14.1,0v12.3
				c-2.2,1.7-4.4,3-6.7,3.9c-2.3,0.9-4.7,1.3-7.1,1.3c-3.3,0-6.2-0.7-8.9-2.1c-2.7-1.4-4.7-3.4-6-6.1c-1.4-2.6-2-5.6-2-8.9
				c0-3.2,0.7-6.3,2-9.1c1.4-2.8,3.3-4.9,5.8-6.2c2.5-1.4,5.5-2,8.8-2c2.4,0,4.6,0.4,6.5,1.2c1.9,0.8,3.5,1.9,4.6,3.3
				c1.1,1.4,1.9,3.2,2.5,5.4l-4,1.1c-0.5-1.7-1.1-3-1.9-4c-0.7-1-1.8-1.7-3.2-2.3c-1.4-0.6-2.9-0.9-4.6-0.9c-2,0-3.7,0.3-5.2,0.9
				c-1.5,0.6-2.6,1.4-3.5,2.4c-0.9,1-1.6,2.1-2.1,3.3c-0.8,2.1-1.3,4.3-1.3,6.7c0,3,0.5,5.4,1.5,7.4c1,2,2.5,3.5,4.5,4.4
				c2,1,4,1.5,6.2,1.5c1.9,0,3.8-0.4,5.6-1.1c1.8-0.7,3.2-1.5,4.1-2.3v-6.2H1002.2z"/>
			
				<linearGradient id="SVGID_00000154396797051717112080000011088280731437072013_" gradientUnits="userSpaceOnUse" x1="1044.1833" y1="746.6631" x2="1047.6672" y2="1362.147">
				<stop  offset="0" style="stop-color:#F4C22E"/>
				<stop  offset="0" style="stop-color:#ECC33E"/>
				<stop  offset="0.3198" style="stop-color:#FCF38F"/>
				<stop  offset="0.6802" style="stop-color:#DCAC26"/>
				<stop  offset="1" style="stop-color:#FAF399"/>
			</linearGradient>
			<path style="fill:url(#SVGID_00000154396797051717112080000011088280731437072013_);" d="M1035.5,1044.6v-33.2h4.4v29.3h16.4v3.9
				H1035.5z"/>
			
				<linearGradient id="SVGID_00000093881986094549545130000002804073909212250517_" gradientUnits="userSpaceOnUse" x1="1071.7002" y1="746.5074" x2="1075.1841" y2="1361.9912">
				<stop  offset="0" style="stop-color:#F4C22E"/>
				<stop  offset="0" style="stop-color:#ECC33E"/>
				<stop  offset="0.3198" style="stop-color:#FCF38F"/>
				<stop  offset="0.6802" style="stop-color:#DCAC26"/>
				<stop  offset="1" style="stop-color:#FAF399"/>
			</linearGradient>
			<path style="fill:url(#SVGID_00000093881986094549545130000002804073909212250517_);" d="M1057.8,1044.6l12.8-33.2h4.7l13.6,33.2
				h-5l-3.9-10.1h-13.9l-3.7,10.1H1057.8z M1067.4,1031h11.3l-3.5-9.2c-1.1-2.8-1.8-5.1-2.4-6.9c-0.4,2.1-1,4.2-1.8,6.3L1067.4,1031
				z"/>
			
				<linearGradient id="SVGID_00000009562816660792659890000007078946207100428968_" gradientUnits="userSpaceOnUse" x1="1093.8119" y1="746.3822" x2="1097.2958" y2="1361.8661">
				<stop  offset="0" style="stop-color:#F4C22E"/>
				<stop  offset="0" style="stop-color:#ECC33E"/>
				<stop  offset="0.3198" style="stop-color:#FCF38F"/>
				<stop  offset="0.6802" style="stop-color:#DCAC26"/>
				<stop  offset="1" style="stop-color:#FAF399"/>
			</linearGradient>
			<path style="fill:url(#SVGID_00000009562816660792659890000007078946207100428968_);" d="M1093.2,1044.6v-33.2h4.4v33.2H1093.2z"
				/>
		</g>
	</g>
	<g>
		
			<linearGradient id="SVGID_00000114056635835436782430000010638761812470113182_" gradientUnits="userSpaceOnUse" x1="501.3453" y1="642.3157" x2="501.3453" y2="1257.5201">
			<stop  offset="0" style="stop-color:#F4C22E"/>
			<stop  offset="0" style="stop-color:#ECC33E"/>
			<stop  offset="0.3198" style="stop-color:#FCF38F"/>
			<stop  offset="0.6802" style="stop-color:#DCAC26"/>
			<stop  offset="1" style="stop-color:#FAF399"/>
		</linearGradient>
		<path style="fill:url(#SVGID_00000114056635835436782430000010638761812470113182_);" d="M566,791.7v44.5h-18.8v31.9
			c0,2.1-0.1,4.1-0.2,6.1v35.1c0,6.8-5.5,12.3-12.3,12.3H449c-6.8,0-12.3-5.5-12.3-12.3V791.7h3.3c0,0,0.1,0,0.1,0h26.7
			c0.1,0,0.2,0,0.3,0h3.5v105.5h20.7c0.2,0,0.5,0,0.7,0s0.5,0,0.7,0h20.8V791.7h33.8v26.3h5.6c0.1-0.4,0.1-0.8,0.1-1.2l-0.1-10.9
			v-14.1H566z"/>
		<g>
			
				<linearGradient id="SVGID_00000140716052857834668910000018266133636798029241_" gradientUnits="userSpaceOnUse" x1="355.5804" y1="642.3157" x2="355.5804" y2="1257.5201">
				<stop  offset="0" style="stop-color:#F4C22E"/>
				<stop  offset="0" style="stop-color:#ECC33E"/>
				<stop  offset="0.3198" style="stop-color:#FCF38F"/>
				<stop  offset="0.6802" style="stop-color:#DCAC26"/>
				<stop  offset="1" style="stop-color:#FAF399"/>
			</linearGradient>
			<path style="fill:url(#SVGID_00000140716052857834668910000018266133636798029241_);" d="M408.8,920.5l-25.2-49.4
				c6.4-4.1,11.6-9.3,15.5-15.8c3.9-6.5,5.8-13.1,5.8-20c0-7.3-1.8-14.4-5.3-21.1c-3.5-6.7-8.4-12.2-14.8-16.3
				c-6.3-4.1-13.5-6.2-21.4-6.2h-45.8h-15.9l0,30.1v84.9h0v14.9h33.7v-43.2h14.1l22.5,43.2h37.3L408.8,920.5z M368.5,842.3
				c-1.3,2.4-3.2,4.4-5.6,5.9c-2.4,1.5-5,2.2-8,2.2h-19.4v-31.7h19.4c2.9,0,5.6,0.8,7.9,2.3c2.4,1.6,4.2,3.6,5.6,6.1
				c1.4,2.5,2,5,2,7.6C370.5,837.4,369.8,839.9,368.5,842.3z"/>
		</g>
		
			<linearGradient id="SVGID_00000000928141001487446980000016413217625890157718_" gradientUnits="userSpaceOnUse" x1="953.5812" y1="642.3157" x2="953.5812" y2="1257.5201">
			<stop  offset="0" style="stop-color:#F4C22E"/>
			<stop  offset="0" style="stop-color:#ECC33E"/>
			<stop  offset="0.3198" style="stop-color:#FCF38F"/>
			<stop  offset="0.6802" style="stop-color:#DCAC26"/>
			<stop  offset="1" style="stop-color:#FAF399"/>
		</linearGradient>
		<path style="fill:url(#SVGID_00000000928141001487446980000016413217625890157718_);" d="M976.3,862.3v26.2
			c-3.7,1.1-7.7,1.7-11.9,1.7c-6,0-11.4-1.5-16.2-4.6c-4.8-3-8.6-7.2-11.3-12.3c-2.7-5.2-4.1-10.9-4.1-17c0-6.3,1.3-11.9,4-17
			c2.7-5.1,6.5-9.1,11.4-12.1c4.9-2.9,10.6-4.4,17-4.4c5.9,0,11.3,1.6,16.4,4.8l5.6,3.9l17.6-25.5l-2.9-2.4
			c-5.5-4-11.2-6.9-17.1-8.8c-5.9-1.9-12.6-2.9-20-2.9c-11.9,0-22.8,2.9-32.7,8.6c-9.9,5.7-17.8,13.6-23.6,23.4
			c-5.8,9.9-8.7,20.7-8.7,32.5c0,11.8,2.9,22.7,8.8,32.7c5.9,10,13.8,17.9,23.8,23.8c10,5.8,20.9,8.8,32.7,8.8
			c7.7,0,15.1-0.9,22-2.7c6.9-1.8,12.9-4.3,18.1-7.7c0.8-0.5,1.3-1,1.6-1.6c0.3-0.6,0.4-1.4,0.4-2.3v-44.8H976.3z"/>
		<g>
			
				<linearGradient id="SVGID_00000057836762404505778130000003519878162677281161_" gradientUnits="userSpaceOnUse" x1="208.9093" y1="642.3157" x2="208.9093" y2="1257.5201">
				<stop  offset="0" style="stop-color:#F4C22E"/>
				<stop  offset="0" style="stop-color:#ECC33E"/>
				<stop  offset="0.3198" style="stop-color:#FCF38F"/>
				<stop  offset="0.6802" style="stop-color:#DCAC26"/>
				<stop  offset="1" style="stop-color:#FAF399"/>
			</linearGradient>
			<path style="fill:url(#SVGID_00000057836762404505778130000003519878162677281161_);" d="M192.3,921.6v-99.9h-49l17-30.1h114.1
				l-15.9,30.1h-33v83.6L192.3,921.6L192.3,921.6z"/>
		</g>
		<g>
			
				<linearGradient id="SVGID_00000013172381737130495580000013795355939688909239_" gradientUnits="userSpaceOnUse" x1="1122.7935" y1="642.3157" x2="1122.7935" y2="1257.5201">
				<stop  offset="0" style="stop-color:#F4C22E"/>
				<stop  offset="0" style="stop-color:#ECC33E"/>
				<stop  offset="0.3198" style="stop-color:#FCF38F"/>
				<stop  offset="0.6802" style="stop-color:#DCAC26"/>
				<stop  offset="1" style="stop-color:#FAF399"/>
			</linearGradient>
			<polygon style="fill:url(#SVGID_00000013172381737130495580000013795355939688909239_);" points="1136.2,891.7 1109.4,891.7 
				1122.2,860 			"/>
			<g>
				<defs>
					<polygon id="SVGID_00000029764183582334124420000008496113841738047901_" points="1138.4,791.7 1189.3,921.6 1154.4,921.5 
						1122.1,848.4 1092.6,921.6 1056.8,921.6 1107.5,791.7 					"/>
				</defs>
				
					<linearGradient id="SVGID_00000128484938445301178280000010637372544369976198_" gradientUnits="userSpaceOnUse" x1="1123.0046" y1="642.3157" x2="1123.0046" y2="1257.5201">
					<stop  offset="0" style="stop-color:#F4C22E"/>
					<stop  offset="0" style="stop-color:#ECC33E"/>
					<stop  offset="0.3198" style="stop-color:#FCF38F"/>
					<stop  offset="0.6802" style="stop-color:#DCAC26"/>
					<stop  offset="1" style="stop-color:#FAF399"/>
				</linearGradient>
				
					<use xlink:href="#SVGID_00000029764183582334124420000008496113841738047901_"  style="overflow:visible;fill-rule:evenodd;clip-rule:evenodd;fill:url(#SVGID_00000128484938445301178280000010637372544369976198_);"/>
				<clipPath id="SVGID_00000034084555282395022010000008949814312471326121_">
					<use xlink:href="#SVGID_00000029764183582334124420000008496113841738047901_"  style="overflow:visible;"/>
				</clipPath>
			</g>
		</g>
		
			<linearGradient id="SVGID_00000068674588744244643470000011042582153224424588_" gradientUnits="userSpaceOnUse" x1="1273.8793" y1="642.3157" x2="1273.8793" y2="1257.5201">
			<stop  offset="0" style="stop-color:#F4C22E"/>
			<stop  offset="0" style="stop-color:#ECC33E"/>
			<stop  offset="0.3198" style="stop-color:#FCF38F"/>
			<stop  offset="0.6802" style="stop-color:#DCAC26"/>
			<stop  offset="1" style="stop-color:#FAF399"/>
		</linearGradient>
		<polygon style="fill:url(#SVGID_00000068674588744244643470000011042582153224424588_);" points="1331.2,791.7 1331.2,921.6 
			1295.3,921.6 1249,842.1 1249,921.6 1216.5,921.6 1216.5,791.7 1252.5,791.7 1298.7,871.2 1298.7,791.7 		"/>
		<g>
			
				<linearGradient id="SVGID_00000152951686896314664010000002614047014984728712_" gradientUnits="userSpaceOnUse" x1="661.9415" y1="642.3157" x2="661.9415" y2="1257.5201">
				<stop  offset="0" style="stop-color:#F4C22E"/>
				<stop  offset="0" style="stop-color:#ECC33E"/>
				<stop  offset="0.3198" style="stop-color:#FCF38F"/>
				<stop  offset="0.6802" style="stop-color:#DCAC26"/>
				<stop  offset="1" style="stop-color:#FAF399"/>
			</linearGradient>
			<path style="fill:url(#SVGID_00000152951686896314664010000002614047014984728712_);" d="M730.6,822.8l-0.1-13.9v-17.3h-12.7
				v16.2l0.1,10.4c0,0.4,0,0.8-0.1,1.2h-6.3c-5.4-7.8-12.3-14.1-20.6-19c-10-5.8-20.8-8.8-32.6-8.8c-11.8,0-22.6,2.9-32.6,8.8
				c-9.9,5.8-17.8,13.7-23.7,23.7c-2,3.4-3.7,6.9-5,10.6c-0.2,0.4-0.3,0.9-0.5,1.3c-0.1,0.4-0.3,0.8-0.4,1.2
				c-1.4,4.5-2.3,9.1-2.7,14c-0.1,1.3-0.2,2.6-0.2,3.9c0,0.4,0,0.9,0,1.4v0.2c0,0.5,0,1.1,0,1.6c0.3,10.8,3.2,21,8.1,29.8
				c0.2,0.3,0.3,0.6,0.5,0.9c0.1,0.2,0.3,0.4,0.4,0.7c0.3,0.4,0.5,0.9,0.8,1.3c0,0.1,0.1,0.2,0.2,0.3c0.4,0.6,0.7,1.2,1.1,1.7v0
				c0.4,0.6,0.8,1.1,1.2,1.7c0.4,0.6,0.8,1.1,1.3,1.7c0.4,0.6,0.9,1.1,1.3,1.6c0.3,0.4,0.7,0.8,1.1,1.3c0.3,0.3,0.6,0.7,0.9,1
				c0.1,0.1,0.1,0.1,0.2,0.2c0.3,0.3,0.6,0.7,1,1c0.7,0.7,1.4,1.5,2.2,2.2c0.4,0.3,0.7,0.7,1.1,1c0,0,0.1,0.1,0.1,0.1
				c0.3,0.3,0.7,0.6,1,0.9c0.4,0.3,0.8,0.7,1.2,1c0.1,0.1,0.3,0.2,0.4,0.3c0.4,0.4,0.9,0.7,1.3,1c0.6,0.4,1.1,0.9,1.7,1.3
				c1.2,0.8,2.3,1.6,3.5,2.4c0.6,0.4,1.2,0.8,1.8,1.1c0.2,0.1,0.4,0.2,0.5,0.3c0.3,0.2,0.7,0.4,1,0.6c7.8,4.2,16.6,6.9,26,7.7
				c0.5,0,1.1,0.1,1.7,0.1c0.5,0,1.1,0.1,1.6,0.1h0.1c0.5,0,1.1,0,1.6,0c0.5,0,1.1,0,1.6,0h0.1c0.5,0,1.1,0,1.6-0.1
				c0.6,0,1.1-0.1,1.7-0.1c8.2-0.6,16.1-2.8,23.2-6.2c0.3-0.1,0.5-0.3,0.8-0.4c0.5-0.3,1-0.5,1.5-0.8c0.1,0,0.1,0,0.1-0.1
				c0.1-0.1,0.2-0.1,0.4-0.2c0.5-0.3,1-0.6,1.6-0.9c2.3-1.3,4.4-2.8,6.5-4.3c0.3-0.2,0.6-0.4,0.8-0.6c0.4-0.3,0.8-0.6,1.2-0.9
				c0.1-0.1,0.2-0.2,0.4-0.3c0.5-0.4,0.9-0.7,1.3-1.1c0.1-0.1,0.2-0.1,0.3-0.2c0.3-0.3,0.6-0.6,0.9-0.8c0.3-0.3,0.6-0.5,0.8-0.8
				c0,0,0.1-0.1,0.1-0.1c0.3-0.3,0.7-0.7,1.1-1c0.4-0.4,0.8-0.8,1.2-1.2c0.2-0.2,0.4-0.5,0.7-0.7c0.2-0.2,0.5-0.5,0.7-0.7
				c0.2-0.2,0.4-0.4,0.5-0.6c0.4-0.5,0.8-0.9,1.2-1.4c0,0,0,0,0,0c0.4-0.5,0.9-1.1,1.3-1.6c0.6-0.8,1.3-1.7,1.9-2.5
				c0.6-0.8,1.2-1.7,1.7-2.6c0.1-0.1,0.1-0.2,0.2-0.3c0.3-0.4,0.5-0.9,0.8-1.3c0.1-0.2,0.3-0.4,0.4-0.7c0.2-0.3,0.3-0.6,0.5-0.9
				c4.9-8.9,7.8-19,8.1-29.8c0-0.5,0-1,0-1.6v-0.1c0-0.7,0-1.4,0-2.1c0-0.3,0-0.6,0-0.9c0-0.4,0-0.7-0.1-1.1c0,0,0-0.1,0-0.1
				c0-0.4-0.1-0.8-0.1-1.2c0-0.2,0-0.5-0.1-0.7c0-0.3-0.1-0.6-0.1-0.8c0,0,0,0,0,0c-0.5-5-1.6-9.9-3.3-14.6h10.9V822.8z
				 M659.2,892.5c-19.8,0-35.8-16-35.8-35.8c0-19.8,16-35.8,35.8-35.8c19.8,0,35.8,16,35.8,35.8C695,876.4,679,892.5,659.2,892.5z"
				/>
			
				<linearGradient id="SVGID_00000021093466343794488050000016118846986498966192_" gradientUnits="userSpaceOnUse" x1="656.1887" y1="642.3157" x2="656.1887" y2="1257.5201">
				<stop  offset="0" style="stop-color:#F4C22E"/>
				<stop  offset="0" style="stop-color:#ECC33E"/>
				<stop  offset="0.3198" style="stop-color:#FCF38F"/>
				<stop  offset="0.6802" style="stop-color:#DCAC26"/>
				<stop  offset="1" style="stop-color:#FAF399"/>
			</linearGradient>
			
				<polygon style="fill-rule:evenodd;clip-rule:evenodd;fill:url(#SVGID_00000021093466343794488050000016118846986498966192_);" points="
				618.1,752.4 697.6,772.8 696,780.6 614.8,769 			"/>
		</g>
		
			<linearGradient id="SVGID_00000079473515868737387000000009606538622619750283_" gradientUnits="userSpaceOnUse" x1="815.2054" y1="642.3157" x2="815.2054" y2="1257.5201">
			<stop  offset="0" style="stop-color:#F4C22E"/>
			<stop  offset="0" style="stop-color:#ECC33E"/>
			<stop  offset="0.3198" style="stop-color:#FCF38F"/>
			<stop  offset="0.6802" style="stop-color:#DCAC26"/>
			<stop  offset="1" style="stop-color:#FAF399"/>
		</linearGradient>
		<polygon style="fill:url(#SVGID_00000079473515868737387000000009606538622619750283_);" points="872.6,791.7 872.6,921.6 
			836.6,921.6 790.4,842.1 790.4,921.6 757.8,921.6 757.8,791.7 793.8,791.7 840,871.2 840,791.7 		"/>
		
			<linearGradient id="SVGID_00000026136391683926017430000001416044687880403850_" gradientUnits="userSpaceOnUse" x1="300.1248" y1="821.7418" x2="300.1248" y2="821.7418">
			<stop  offset="0" style="stop-color:#F4C22E"/>
			<stop  offset="0" style="stop-color:#ECC33E"/>
			<stop  offset="0.3198" style="stop-color:#FCF38F"/>
			<stop  offset="0.6802" style="stop-color:#DCAC26"/>
			<stop  offset="1" style="stop-color:#FAF399"/>
		</linearGradient>
		<path style="fill:url(#SVGID_00000026136391683926017430000001416044687880403850_);" d="M300.1,821.7"/>
		
			<linearGradient id="SVGID_00000159451992828026728080000011788126791680331916_" gradientUnits="userSpaceOnUse" x1="725.5862" y1="642.3157" x2="725.5862" y2="1257.5201">
			<stop  offset="0" style="stop-color:#F4C22E"/>
			<stop  offset="0" style="stop-color:#ECC33E"/>
			<stop  offset="0.3198" style="stop-color:#FCF38F"/>
			<stop  offset="0.6802" style="stop-color:#DCAC26"/>
			<stop  offset="1" style="stop-color:#FAF399"/>
		</linearGradient>
		<polygon style="fill:url(#SVGID_00000159451992828026728080000011788126791680331916_);" points="725.6,791.7 725.6,822.8 
			725.5,808.9 725.5,791.7 		"/>
		
			<linearGradient id="SVGID_00000017517842887706350220000008596920697039988144_" gradientUnits="userSpaceOnUse" x1="999.0824" y1="862.2789" x2="999.0824" y2="862.2789">
			<stop  offset="0" style="stop-color:#F4C22E"/>
			<stop  offset="0" style="stop-color:#ECC33E"/>
			<stop  offset="0.3198" style="stop-color:#FCF38F"/>
			<stop  offset="0.6802" style="stop-color:#DCAC26"/>
			<stop  offset="1" style="stop-color:#FAF399"/>
		</linearGradient>
		<path style="fill:url(#SVGID_00000017517842887706350220000008596920697039988144_);" d="M999.1,862.3"/>
	</g>
	<g>
		
			<linearGradient id="SVGID_00000084489210723368682820000003422089071772154788_" gradientUnits="userSpaceOnUse" x1="570.3932" y1="-57.103" x2="858.3932" y2="1986.7679">
			<stop  offset="0" style="stop-color:#F4C22E"/>
			<stop  offset="0" style="stop-color:#ECC33E"/>
			<stop  offset="0.3198" style="stop-color:#FCF38F"/>
			<stop  offset="0.6802" style="stop-color:#DCAC26"/>
			<stop  offset="1" style="stop-color:#FAF399"/>
		</linearGradient>
		<polygon style="fill:url(#SVGID_00000084489210723368682820000003422089071772154788_);" points="708.8,234.2 532.6,332.1 
			532.6,365.4 708.8,267.6 		"/>
		
			<linearGradient id="SVGID_00000127728607122364269860000018034022357810738357_" gradientUnits="userSpaceOnUse" x1="563.6739" y1="-56.1562" x2="851.6739" y2="1987.7147">
			<stop  offset="0" style="stop-color:#F4C22E"/>
			<stop  offset="0" style="stop-color:#ECC33E"/>
			<stop  offset="0.3198" style="stop-color:#FCF38F"/>
			<stop  offset="0.6802" style="stop-color:#DCAC26"/>
			<stop  offset="1" style="stop-color:#FAF399"/>
		</linearGradient>
		<polygon style="fill:url(#SVGID_00000127728607122364269860000018034022357810738357_);" points="532.6,414.1 708.8,316.3 
			708.8,282.9 532.6,380.7 		"/>
		
			<linearGradient id="SVGID_00000039115794944917415760000010263930742059382657_" gradientUnits="userSpaceOnUse" x1="657.5645" y1="-69.3863" x2="945.5645" y2="1974.4847">
			<stop  offset="0" style="stop-color:#F4C22E"/>
			<stop  offset="0" style="stop-color:#ECC33E"/>
			<stop  offset="0.3198" style="stop-color:#FCF38F"/>
			<stop  offset="0.6802" style="stop-color:#DCAC26"/>
			<stop  offset="1" style="stop-color:#FAF399"/>
		</linearGradient>
		<path style="fill:url(#SVGID_00000039115794944917415760000010263930742059382657_);" d="M728.2,653.8h-60V355.3L634.8,374v279.8
			h-23.6V387.1l-33.4,18.7v248v9.5v9.5h319.3v-9.5v-9.5V323l-169.2-88.8L728.2,653.8z M761.4,286.2l102.4,51.7v316H761.3
			L761.4,286.2z"/>
		
			<linearGradient id="SVGID_00000126314981434160361860000010408948031378908319_" gradientUnits="userSpaceOnUse" x1="747.9258" y1="-82.119" x2="1035.9258" y2="1961.752">
			<stop  offset="0" style="stop-color:#F4C22E"/>
			<stop  offset="0" style="stop-color:#ECC33E"/>
			<stop  offset="0.3198" style="stop-color:#FCF38F"/>
			<stop  offset="0.6802" style="stop-color:#DCAC26"/>
			<stop  offset="1" style="stop-color:#FAF399"/>
		</linearGradient>
		<polygon style="fill:url(#SVGID_00000126314981434160361860000010408948031378908319_);" points="790.6,399.7 834.7,422 
			834.7,354.7 790.6,332.3 		"/>
		
			<linearGradient id="SVGID_00000109721531784406447730000001658132228529713083_" gradientUnits="userSpaceOnUse" x1="673.222" y1="-71.5926" x2="961.222" y2="1972.2784">
			<stop  offset="0" style="stop-color:#F4C22E"/>
			<stop  offset="0" style="stop-color:#ECC33E"/>
			<stop  offset="0.3198" style="stop-color:#FCF38F"/>
			<stop  offset="0.6802" style="stop-color:#DCAC26"/>
			<stop  offset="1" style="stop-color:#FAF399"/>
		</linearGradient>
		<path style="fill:url(#SVGID_00000109721531784406447730000001658132228529713083_);" d="M737.3,86.6
			c-163.7,0-296.3,132.7-296.3,296.3c0,105,54.6,197.2,136.9,249.9v-26.6c-12.2-8.7-23.7-18.5-34.5-29.3
			C491.5,525.1,463,456.2,463,383c0-73.3,28.5-142.1,80.3-193.9s120.7-80.3,193.9-80.3c73.3,0,142.2,28.5,193.9,80.3
			c51.8,51.8,80.3,120.7,80.3,193.9c0,73.3-28.5,142.2-80.3,194c-10.7,10.7-22,20.3-34,29v26.6c82.1-52.7,136.4-144.8,136.4-249.6
			C1033.6,219.3,900.9,86.6,737.3,86.6z"/>
	</g>
</g>
</svg>
