<?xml version="1.0" encoding="utf-8"?>
<!-- Generator: Adobe Illustrator 27.1.0, SVG Export Plug-In . SVG Version: 6.00 Build 0)  -->
<svg version="1.1" id="Layer_1" xmlns="http://www.w3.org/2000/svg" xmlns:xlink="http://www.w3.org/1999/xlink" x="0px" y="0px"
	 viewBox="0 0 1951 706.1" style="enable-background:new 0 0 1951 706.1;" xml:space="preserve">
<style type="text/css">
	.st0{fill:url(#SVGID_1_);}
	.st1{fill:url(#SVGID_00000150088239589225983160000017570038279147123844_);}
	.st2{fill:url(#SVGID_00000003076109058131448040000012001730336048049816_);}
	.st3{fill:url(#SVGID_00000086671398348019951550000001372629671894816439_);}
	.st4{fill:url(#SVGID_00000073715736590106650310000015169137182185430195_);}
	.st5{fill:url(#SVGID_00000016786150496563156550000011404645412363493525_);}
	.st6{fill:url(#SVGID_00000026855990302777121410000016926587134019973770_);}
	.st7{fill:url(#SVGID_00000046314672488570184610000011930065838879683204_);}
	.st8{fill:url(#SVGID_00000170272808620313582620000005782362713448118185_);}
	.st9{fill:url(#SVGID_00000009579457399944605750000013026470328399505822_);}
	.st10{fill:url(#SVGID_00000080190812844724853590000016753611854005431217_);}
	.st11{fill:url(#SVGID_00000095298292319613019190000015649260103441751689_);}
	.st12{fill:url(#SVGID_00000114792314804809458990000000543785984532277402_);}
	.st13{fill:url(#SVGID_00000099619862572827086880000001058406064947860156_);}
	.st14{fill:url(#SVGID_00000122691822519001023910000016723056623012656545_);}
	.st15{fill:url(#SVGID_00000138553783336326903640000011280980934292018854_);}
	.st16{fill:url(#SVGID_00000063599268967874178440000010748845505563716237_);}
	.st17{fill:url(#SVGID_00000000181534288277095860000015896190723871190155_);}
	.st18{fill:url(#SVGID_00000152223162915274734650000012753063209240870272_);}
	.st19{fill:url(#SVGID_00000161606675573564606350000002750033862490093987_);}
	.st20{fill:url(#SVGID_00000072257965111945251390000002320266383871440260_);}
	.st21{fill:url(#SVGID_00000091726248852655324430000012950460693082144444_);}
	.st22{fill:url(#SVGID_00000006691084761044736520000010193105315442210493_);}
	.st23{fill:url(#SVGID_00000017483150012160414060000008762209998771290248_);}
	.st24{fill:url(#SVGID_00000013892804303249486580000007281371051193588120_);}
	.st25{fill:url(#SVGID_00000018230409754962668900000006038954008100119169_);}
	.st26{fill:url(#SVGID_00000007408404989971819370000000113034315655546284_);}
	.st27{fill:url(#SVGID_00000005974924497301449350000013590297577013179790_);}
	.st28{fill:url(#SVGID_00000041282480748103543570000007473158612887395725_);}
	.st29{fill-rule:evenodd;clip-rule:evenodd;fill:url(#SVGID_00000075150571646806232810000001338366089673105598_);}
	.st30{fill:url(#SVGID_00000106846526481518906080000002276936004965427366_);}
	.st31{fill:url(#SVGID_00000010999356752332645330000002556566637694294460_);}
	.st32{fill:url(#SVGID_00000173158369628844860010000013018096421068332713_);}
	.st33{fill:url(#SVGID_00000061469741793024735860000001706705102078258588_);}
	.st34{fill:url(#SVGID_00000044857651000294552230000018341439515253970067_);}
	.st35{fill:url(#SVGID_00000103950782315068226230000018066054937059239040_);}
	.st36{fill:url(#SVGID_00000114033133906601630420000015621868197174448557_);}
	.st37{fill:url(#SVGID_00000079468279533066338650000006634976338379820446_);}
	.st38{fill:url(#SVGID_00000109734158993674569090000005535334568983320457_);}
</style>
<g>
	<g>
		<g>
			<linearGradient id="SVGID_1_" gradientUnits="userSpaceOnUse" x1="943.501" y1="-84.6068" x2="958.9849" y2="993.0706">
				<stop  offset="0" style="stop-color:#F4C22E"/>
				<stop  offset="0" style="stop-color:#ECC33E"/>
				<stop  offset="0.3198" style="stop-color:#FCF38F"/>
				<stop  offset="0.6802" style="stop-color:#DCAC26"/>
				<stop  offset="1" style="stop-color:#FAF399"/>
			</linearGradient>
			<path class="st0" d="M948.8,441.8l-10.6-27.5h3.9l7.1,20c0.6,1.6,1.1,3.1,1.4,4.5c0.4-1.5,0.9-3,1.5-4.5l7.4-20h3.7l-10.8,27.5
				H948.8z"/>
			
				<linearGradient id="SVGID_00000046327578213350052560000014682229694773622914_" gradientUnits="userSpaceOnUse" x1="973.3519" y1="-85.0357" x2="988.8358" y2="992.6417">
				<stop  offset="0" style="stop-color:#F4C22E"/>
				<stop  offset="0" style="stop-color:#ECC33E"/>
				<stop  offset="0.3198" style="stop-color:#FCF38F"/>
				<stop  offset="0.6802" style="stop-color:#DCAC26"/>
				<stop  offset="1" style="stop-color:#FAF399"/>
			</linearGradient>
			<path style="fill:url(#SVGID_00000046327578213350052560000014682229694773622914_);" d="M991.1,418.3v-3.9h3.6v3.1
				c0,2-0.2,3.3-0.7,4.1c-1.2,2.2-3.2,3.3-5.9,3.4v5.2c0,2.8-0.3,5-0.9,6.6c-0.6,1.6-1.8,3-3.4,4c-1.6,1-3.8,1.5-6.4,1.5
				c-5.1,0-8.4-1.7-9.8-5.2c-0.7-1.7-1-4-1-6.9v-15.9h3.6v15.8c0,2.4,0.2,4.1,0.7,5.3c0.4,1.1,1.2,2,2.3,2.6c1.1,0.6,2.4,0.9,4,0.9
				c2.7,0,4.6-0.6,5.7-1.8c1.1-1.3,1.7-3.6,1.7-7v-15.8h3.6v9.2c1.9-0.2,3.4-1,4.2-2.3c0.3-0.5,0.5-1.5,0.5-3H991.1z M971.3,412.7
				c0-1.3,0.3-2.3,1.1-3.1c0.7-0.8,1.6-1.2,2.7-1.2c0.8,0,1.8,0.3,3.2,1c0.7,0.4,1.3,0.6,1.8,0.6c0.4,0,0.7-0.1,0.9-0.3
				c0.2-0.2,0.4-0.7,0.4-1.3h2.4c0,1.4-0.4,2.5-1.1,3.2c-0.7,0.7-1.5,1.1-2.6,1.1c-0.8,0-1.8-0.3-3.1-1c-0.8-0.4-1.4-0.7-1.8-0.7
				c-0.4,0-0.8,0.1-1,0.4c-0.3,0.3-0.4,0.7-0.4,1.3H971.3z"/>
			
				<linearGradient id="SVGID_00000103975548081018095730000000209168706293315257_" gradientUnits="userSpaceOnUse" x1="1002.6562" y1="-85.4567" x2="1018.14" y2="992.2207">
				<stop  offset="0" style="stop-color:#F4C22E"/>
				<stop  offset="0" style="stop-color:#ECC33E"/>
				<stop  offset="0.3198" style="stop-color:#FCF38F"/>
				<stop  offset="0.6802" style="stop-color:#DCAC26"/>
				<stop  offset="1" style="stop-color:#FAF399"/>
			</linearGradient>
			<path style="fill:url(#SVGID_00000103975548081018095730000000209168706293315257_);" d="M999.2,441.8v-27.5h3.7l14.4,21.6v-21.6
				h3.5v27.5h-3.7l-14.4-21.6v21.6H999.2z"/>
			
				<linearGradient id="SVGID_00000180351324978853287550000007984173927850195328_" gradientUnits="userSpaceOnUse" x1="1031.3589" y1="-85.8691" x2="1046.8427" y2="991.8083">
				<stop  offset="0" style="stop-color:#F4C22E"/>
				<stop  offset="0" style="stop-color:#ECC33E"/>
				<stop  offset="0.3198" style="stop-color:#FCF38F"/>
				<stop  offset="0.6802" style="stop-color:#DCAC26"/>
				<stop  offset="1" style="stop-color:#FAF399"/>
			</linearGradient>
			<path style="fill:url(#SVGID_00000180351324978853287550000007984173927850195328_);" d="M1039.8,431.1v-3.2l11.6,0V438
				c-1.8,1.4-3.6,2.5-5.5,3.2c-1.9,0.7-3.8,1.1-5.8,1.1c-2.7,0-5.1-0.6-7.4-1.7c-2.2-1.2-3.9-2.8-5-5c-1.1-2.2-1.7-4.6-1.7-7.3
				c0-2.7,0.6-5.2,1.7-7.5c1.1-2.3,2.7-4,4.8-5.2c2.1-1.1,4.5-1.7,7.2-1.7c2,0,3.8,0.3,5.4,1c1.6,0.6,2.9,1.5,3.8,2.7
				c0.9,1.1,1.6,2.6,2.1,4.5l-3.3,0.9c-0.4-1.4-0.9-2.5-1.5-3.3c-0.6-0.8-1.5-1.4-2.6-1.9c-1.1-0.5-2.4-0.7-3.8-0.7
				c-1.7,0-3.1,0.3-4.3,0.8c-1.2,0.5-2.2,1.2-2.9,2c-0.7,0.8-1.3,1.7-1.7,2.7c-0.7,1.7-1,3.5-1,5.5c0,2.4,0.4,4.5,1.3,6.1
				c0.8,1.6,2.1,2.9,3.7,3.7c1.6,0.8,3.3,1.2,5.1,1.2c1.6,0,3.1-0.3,4.6-0.9c1.5-0.6,2.6-1.3,3.4-1.9v-5.1H1039.8z"/>
			
				<linearGradient id="SVGID_00000066500804231294363570000009497598983237430161_" gradientUnits="userSpaceOnUse" x1="1071.851" y1="-86.4509" x2="1087.3348" y2="991.2265">
				<stop  offset="0" style="stop-color:#F4C22E"/>
				<stop  offset="0" style="stop-color:#ECC33E"/>
				<stop  offset="0.3198" style="stop-color:#FCF38F"/>
				<stop  offset="0.6802" style="stop-color:#DCAC26"/>
				<stop  offset="1" style="stop-color:#FAF399"/>
			</linearGradient>
			<path style="fill:url(#SVGID_00000066500804231294363570000009497598983237430161_);" d="M1080.3,431.1v-3.2l11.6,0V438
				c-1.8,1.4-3.6,2.5-5.5,3.2c-1.9,0.7-3.8,1.1-5.8,1.1c-2.7,0-5.1-0.6-7.4-1.7c-2.2-1.2-3.9-2.8-5-5c-1.1-2.2-1.7-4.6-1.7-7.3
				c0-2.7,0.6-5.2,1.7-7.5c1.1-2.3,2.7-4,4.8-5.2c2.1-1.1,4.5-1.7,7.2-1.7c2,0,3.8,0.3,5.4,1c1.6,0.6,2.9,1.5,3.8,2.7
				c0.9,1.1,1.6,2.6,2.1,4.5l-3.3,0.9c-0.4-1.4-0.9-2.5-1.5-3.3c-0.6-0.8-1.5-1.4-2.6-1.9c-1.1-0.5-2.4-0.7-3.8-0.7
				c-1.7,0-3.1,0.3-4.3,0.8c-1.2,0.5-2.2,1.2-2.9,2c-0.7,0.8-1.3,1.7-1.7,2.7c-0.7,1.7-1,3.5-1,5.5c0,2.4,0.4,4.5,1.3,6.1
				c0.8,1.6,2.1,2.9,3.7,3.7c1.6,0.8,3.3,1.2,5.1,1.2c1.6,0,3.1-0.3,4.6-0.9s2.6-1.3,3.4-1.9v-5.1H1080.3z"/>
			
				<linearGradient id="SVGID_00000065065953940854885390000001878691326396174523_" gradientUnits="userSpaceOnUse" x1="1092.3406" y1="-86.7453" x2="1107.8243" y2="990.9321">
				<stop  offset="0" style="stop-color:#F4C22E"/>
				<stop  offset="0" style="stop-color:#ECC33E"/>
				<stop  offset="0.3198" style="stop-color:#FCF38F"/>
				<stop  offset="0.6802" style="stop-color:#DCAC26"/>
				<stop  offset="1" style="stop-color:#FAF399"/>
			</linearGradient>
			<path style="fill:url(#SVGID_00000065065953940854885390000001878691326396174523_);" d="M1097.9,441.8v-27.5h3.6v27.5H1097.9z"
				/>
			
				<linearGradient id="SVGID_00000096053198815701005050000010828978267113108362_" gradientUnits="userSpaceOnUse" x1="1110.198" y1="-87.0019" x2="1125.6819" y2="990.6755">
				<stop  offset="0" style="stop-color:#F4C22E"/>
				<stop  offset="0" style="stop-color:#ECC33E"/>
				<stop  offset="0.3198" style="stop-color:#FCF38F"/>
				<stop  offset="0.6802" style="stop-color:#DCAC26"/>
				<stop  offset="1" style="stop-color:#FAF399"/>
			</linearGradient>
			<path style="fill:url(#SVGID_00000096053198815701005050000010828978267113108362_);" d="M1104.9,441.8l10.5-27.5h3.9l11.2,27.5
				h-4.1l-3.2-8.3h-11.5l-3,8.3H1104.9z M1112.9,430.6h9.3l-2.9-7.6c-0.9-2.3-1.5-4.2-1.9-5.7c-0.3,1.8-0.8,3.5-1.5,5.2
				L1112.9,430.6z M1115.1,412.7l2.5-5.2h4.4l-4.1,5.2H1115.1z"/>
			
				<linearGradient id="SVGID_00000111157975578167257420000017895449238173097346_" gradientUnits="userSpaceOnUse" x1="1145.1057" y1="-87.5034" x2="1160.5896" y2="990.174">
				<stop  offset="0" style="stop-color:#F4C22E"/>
				<stop  offset="0" style="stop-color:#ECC33E"/>
				<stop  offset="0.3198" style="stop-color:#FCF38F"/>
				<stop  offset="0.6802" style="stop-color:#DCAC26"/>
				<stop  offset="1" style="stop-color:#FAF399"/>
			</linearGradient>
			<path style="fill:url(#SVGID_00000111157975578167257420000017895449238173097346_);" d="M1150.5,441.8v-24.2h-9v-3.2h21.8v3.2
				h-9.1v24.2H1150.5z"/>
			
				<linearGradient id="SVGID_00000099664563581339588490000006649971763742673559_" gradientUnits="userSpaceOnUse" x1="1171.4985" y1="-87.8826" x2="1186.9824" y2="989.7948">
				<stop  offset="0" style="stop-color:#F4C22E"/>
				<stop  offset="0" style="stop-color:#ECC33E"/>
				<stop  offset="0.3198" style="stop-color:#FCF38F"/>
				<stop  offset="0.6802" style="stop-color:#DCAC26"/>
				<stop  offset="1" style="stop-color:#FAF399"/>
			</linearGradient>
			<path style="fill:url(#SVGID_00000099664563581339588490000006649971763742673559_);" d="M1167,441.8v-27.5h12.2
				c2.4,0,4.3,0.2,5.6,0.7c1.3,0.5,2.3,1.4,3.1,2.6c0.8,1.2,1.1,2.6,1.1,4.1c0,1.9-0.6,3.6-1.9,4.9c-1.3,1.3-3.2,2.2-5.8,2.5
				c1,0.5,1.7,0.9,2.2,1.4c1.1,1,2.1,2.2,3,3.7l4.8,7.5h-4.6l-3.6-5.7c-1.1-1.6-1.9-2.9-2.6-3.8c-0.7-0.9-1.3-1.5-1.8-1.8
				c-0.5-0.3-1.1-0.6-1.7-0.7c-0.4-0.1-1.1-0.1-2-0.1h-4.2v12.2H1167z M1170.6,426.5h7.8c1.7,0,3-0.2,3.9-0.5
				c0.9-0.3,1.6-0.9,2.1-1.6c0.5-0.8,0.7-1.6,0.7-2.5c0-1.3-0.5-2.4-1.4-3.2c-0.9-0.8-2.4-1.3-4.5-1.3h-8.7V426.5z"/>
			
				<linearGradient id="SVGID_00000114775042963293515050000009444969215973604017_" gradientUnits="userSpaceOnUse" x1="1189.5851" y1="-88.1425" x2="1205.069" y2="989.535">
				<stop  offset="0" style="stop-color:#F4C22E"/>
				<stop  offset="0" style="stop-color:#ECC33E"/>
				<stop  offset="0.3198" style="stop-color:#FCF38F"/>
				<stop  offset="0.6802" style="stop-color:#DCAC26"/>
				<stop  offset="1" style="stop-color:#FAF399"/>
			</linearGradient>
			<path style="fill:url(#SVGID_00000114775042963293515050000009444969215973604017_);" d="M1195.2,447.9v-3.8h3.8v3.8H1195.2z
				 M1195.3,441.8v-27.5h3.6v27.5H1195.3z"/>
			
				<linearGradient id="SVGID_00000181796222522166830270000008023141422107111843_" gradientUnits="userSpaceOnUse" x1="1211.9368" y1="-88.4636" x2="1227.4207" y2="989.2138">
				<stop  offset="0" style="stop-color:#F4C22E"/>
				<stop  offset="0" style="stop-color:#ECC33E"/>
				<stop  offset="0.3198" style="stop-color:#FCF38F"/>
				<stop  offset="0.6802" style="stop-color:#DCAC26"/>
				<stop  offset="1" style="stop-color:#FAF399"/>
			</linearGradient>
			<path style="fill:url(#SVGID_00000181796222522166830270000008023141422107111843_);" d="M1214.2,433.6v-3.4h10.4v3.4H1214.2z"/>
			
				<linearGradient id="SVGID_00000020381976265011261630000015889853435425651609_" gradientUnits="userSpaceOnUse" x1="1242.0619" y1="-88.8964" x2="1257.5458" y2="988.7809">
				<stop  offset="0" style="stop-color:#F4C22E"/>
				<stop  offset="0" style="stop-color:#ECC33E"/>
				<stop  offset="0.3198" style="stop-color:#FCF38F"/>
				<stop  offset="0.6802" style="stop-color:#DCAC26"/>
				<stop  offset="1" style="stop-color:#FAF399"/>
			</linearGradient>
			<path style="fill:url(#SVGID_00000020381976265011261630000015889853435425651609_);" d="M1239.3,441.8v-27.5h10.3
				c2.1,0,3.8,0.3,5,0.8c1.3,0.6,2.3,1.4,3,2.6c0.7,1.2,1.1,2.4,1.1,3.6c0,1.2-0.3,2.3-1,3.3c-0.6,1-1.6,1.9-2.9,2.5
				c1.7,0.5,2.9,1.3,3.8,2.5c0.9,1.2,1.3,2.6,1.3,4.2c0,1.3-0.3,2.5-0.8,3.6c-0.5,1.1-1.2,2-2,2.6c-0.8,0.6-1.8,1.1-3,1.4
				c-1.2,0.3-2.7,0.5-4.4,0.5H1239.3z M1242.9,425.9h5.9c1.6,0,2.8-0.1,3.5-0.3c0.9-0.3,1.6-0.7,2.1-1.4c0.5-0.6,0.7-1.4,0.7-2.4
				c0-0.9-0.2-1.7-0.7-2.4c-0.4-0.7-1.1-1.2-1.9-1.4c-0.8-0.3-2.2-0.4-4.2-0.4h-5.5V425.9z M1242.9,438.6h6.8c1.2,0,2,0,2.5-0.1
				c0.8-0.2,1.5-0.4,2.1-0.7c0.6-0.3,1-0.9,1.4-1.5c0.4-0.7,0.5-1.4,0.5-2.3c0-1-0.3-1.9-0.8-2.7c-0.5-0.8-1.3-1.3-2.2-1.6
				c-0.9-0.3-2.3-0.5-4-0.5h-6.4V438.6z"/>
			
				<linearGradient id="SVGID_00000098941249694626331910000008314764558357444771_" gradientUnits="userSpaceOnUse" x1="1267.7144" y1="-89.265" x2="1283.1982" y2="988.4124">
				<stop  offset="0" style="stop-color:#F4C22E"/>
				<stop  offset="0" style="stop-color:#ECC33E"/>
				<stop  offset="0.3198" style="stop-color:#FCF38F"/>
				<stop  offset="0.6802" style="stop-color:#DCAC26"/>
				<stop  offset="1" style="stop-color:#FAF399"/>
			</linearGradient>
			<path style="fill:url(#SVGID_00000098941249694626331910000008314764558357444771_);" d="M1265.1,441.8v-27.5h19.9v3.2h-16.2v8.4
				h15.2v3.2h-15.2v9.3h16.9v3.2H1265.1z M1275,412.2l-2.5,1.3h-3.3l3.9-2.3h3.7l3.9,2.3h-3.3L1275,412.2z M1276.8,410.4h-2.4
				l-4.3-3h4.2L1276.8,410.4z"/>
			
				<linearGradient id="SVGID_00000142893008201695259590000010766613441863273635_" gradientUnits="userSpaceOnUse" x1="1293.9309" y1="-89.6417" x2="1309.4148" y2="988.0357">
				<stop  offset="0" style="stop-color:#F4C22E"/>
				<stop  offset="0" style="stop-color:#ECC33E"/>
				<stop  offset="0.3198" style="stop-color:#FCF38F"/>
				<stop  offset="0.6802" style="stop-color:#DCAC26"/>
				<stop  offset="1" style="stop-color:#FAF399"/>
			</linearGradient>
			<path style="fill:url(#SVGID_00000142893008201695259590000010766613441863273635_);" d="M1290.6,441.8v-27.5h3.7l14.4,21.6
				v-21.6h3.5v27.5h-3.7l-14.4-21.6v21.6H1290.6z"/>
			
				<linearGradient id="SVGID_00000153687892932012939000000014400103959523896507_" gradientUnits="userSpaceOnUse" x1="1329.812" y1="-90.1572" x2="1345.2959" y2="987.5202">
				<stop  offset="0" style="stop-color:#F4C22E"/>
				<stop  offset="0" style="stop-color:#ECC33E"/>
				<stop  offset="0.3198" style="stop-color:#FCF38F"/>
				<stop  offset="0.6802" style="stop-color:#DCAC26"/>
				<stop  offset="1" style="stop-color:#FAF399"/>
			</linearGradient>
			<path style="fill:url(#SVGID_00000153687892932012939000000014400103959523896507_);" d="M1335.2,441.8v-24.2h-9v-3.2h21.8v3.2
				h-9.1v24.2H1335.2z"/>
			
				<linearGradient id="SVGID_00000174568220349728403800000011352397573265152661_" gradientUnits="userSpaceOnUse" x1="1358.478" y1="-90.5691" x2="1373.9619" y2="987.1083">
				<stop  offset="0" style="stop-color:#F4C22E"/>
				<stop  offset="0" style="stop-color:#ECC33E"/>
				<stop  offset="0.3198" style="stop-color:#FCF38F"/>
				<stop  offset="0.6802" style="stop-color:#DCAC26"/>
				<stop  offset="1" style="stop-color:#FAF399"/>
			</linearGradient>
			<path style="fill:url(#SVGID_00000174568220349728403800000011352397573265152661_);" d="M1376.3,418.3v-3.9h3.6v3.1
				c0,2-0.2,3.3-0.7,4.1c-1.2,2.2-3.2,3.3-5.9,3.4v5.2c0,2.8-0.3,5-0.9,6.6c-0.6,1.6-1.8,3-3.4,4c-1.6,1-3.8,1.5-6.4,1.5
				c-5.1,0-8.4-1.7-9.8-5.2c-0.7-1.7-1-4-1-6.9v-15.9h3.6v15.8c0,2.4,0.2,4.1,0.7,5.3c0.4,1.1,1.2,2,2.3,2.6c1.1,0.6,2.4,0.9,4,0.9
				c2.7,0,4.6-0.6,5.7-1.8c1.1-1.3,1.7-3.6,1.7-7v-15.8h3.6v9.2c1.9-0.2,3.4-1,4.2-2.3c0.3-0.5,0.5-1.5,0.5-3H1376.3z"/>
			
				<linearGradient id="SVGID_00000181795515746062313070000006692206723003921297_" gradientUnits="userSpaceOnUse" x1="1391.064" y1="-91.0373" x2="1406.5479" y2="986.6401">
				<stop  offset="0" style="stop-color:#F4C22E"/>
				<stop  offset="0" style="stop-color:#ECC33E"/>
				<stop  offset="0.3198" style="stop-color:#FCF38F"/>
				<stop  offset="0.6802" style="stop-color:#DCAC26"/>
				<stop  offset="1" style="stop-color:#FAF399"/>
			</linearGradient>
			<path style="fill:url(#SVGID_00000181795515746062313070000006692206723003921297_);" d="M1409.9,418v-3.9h3.6v3.1
				c0,1.5-0.2,2.7-0.7,3.6c-0.6,1.1-1.9,2.2-3.7,3.1c0.3,1.3,0.5,2.8,0.5,4.3c0,2.8-0.6,5.3-1.7,7.5c-1.1,2.2-2.7,3.9-4.8,5
				c-2.1,1.1-4.3,1.7-6.7,1.7c-2.6,0-4.9-0.6-6.9-1.9c-2-1.2-3.6-2.9-4.6-5.1c-1-2.2-1.6-4.5-1.6-6.9c0-4.5,1.2-8.1,3.7-10.7
				c2.4-2.6,5.5-3.9,9.5-3.9c2.8,0,5.3,0.8,7.5,2.3c2.2,1.5,3.7,3.6,4.7,6.2c1.1-0.6,1.9-1.3,2.4-2c0.4-0.6,0.6-1.4,0.5-2.5H1409.9z
				 M1387.1,428.5c0,3.2,0.9,5.9,2.7,7.8c1.7,1.9,4,2.8,6.7,2.8c2.8,0,5.1-1,6.8-2.9c1.8-2,2.6-4.7,2.6-8.2c0-4.6-1.5-7.9-4.4-9.7
				c-1.5-0.9-3.1-1.4-4.9-1.4c-2.8,0-5,0.9-6.6,2.6C1388,421.7,1387.1,424.6,1387.1,428.5z"/>
			
				<linearGradient id="SVGID_00000054259621373623061150000005215174255444098728_" gradientUnits="userSpaceOnUse" x1="1420.6707" y1="-91.4627" x2="1436.1545" y2="986.2147">
				<stop  offset="0" style="stop-color:#F4C22E"/>
				<stop  offset="0" style="stop-color:#ECC33E"/>
				<stop  offset="0.3198" style="stop-color:#FCF38F"/>
				<stop  offset="0.6802" style="stop-color:#DCAC26"/>
				<stop  offset="1" style="stop-color:#FAF399"/>
			</linearGradient>
			<path style="fill:url(#SVGID_00000054259621373623061150000005215174255444098728_);" d="M1417.3,441.8v-27.5h3.7l14.4,21.6
				v-21.6h3.5v27.5h-3.7l-14.4-21.6v21.6H1417.3z"/>
			
				<linearGradient id="SVGID_00000089547239877088717610000006046831932738566792_" gradientUnits="userSpaceOnUse" x1="1449.3733" y1="-91.8751" x2="1464.8572" y2="985.8024">
				<stop  offset="0" style="stop-color:#F4C22E"/>
				<stop  offset="0" style="stop-color:#ECC33E"/>
				<stop  offset="0.3198" style="stop-color:#FCF38F"/>
				<stop  offset="0.6802" style="stop-color:#DCAC26"/>
				<stop  offset="1" style="stop-color:#FAF399"/>
			</linearGradient>
			<path style="fill:url(#SVGID_00000089547239877088717610000006046831932738566792_);" d="M1457.9,431.1v-3.2l11.6,0V438
				c-1.8,1.4-3.6,2.5-5.5,3.2c-1.9,0.7-3.8,1.1-5.8,1.1c-2.7,0-5.1-0.6-7.4-1.7c-2.2-1.2-3.9-2.8-5-5c-1.1-2.2-1.7-4.6-1.7-7.3
				c0-2.7,0.6-5.2,1.7-7.5c1.1-2.3,2.7-4,4.8-5.2c2.1-1.1,4.5-1.7,7.2-1.7c2,0,3.8,0.3,5.4,1c1.6,0.6,2.9,1.5,3.8,2.7
				c0.9,1.1,1.6,2.6,2.1,4.5l-3.3,0.9c-0.4-1.4-0.9-2.5-1.5-3.3c-0.6-0.8-1.5-1.4-2.6-1.9c-1.1-0.5-2.4-0.7-3.8-0.7
				c-1.7,0-3.1,0.3-4.3,0.8c-1.2,0.5-2.2,1.2-2.9,2c-0.7,0.8-1.3,1.7-1.7,2.7c-0.7,1.7-1,3.5-1,5.5c0,2.4,0.4,4.5,1.3,6.1
				c0.8,1.6,2.1,2.9,3.7,3.7c1.6,0.8,3.3,1.2,5.1,1.2c1.6,0,3.1-0.3,4.6-0.9c1.5-0.6,2.6-1.3,3.4-1.9v-5.1H1457.9z"/>
			
				<linearGradient id="SVGID_00000072974592573226102140000001860472565218928292_" gradientUnits="userSpaceOnUse" x1="1486.3389" y1="-92.4062" x2="1501.8228" y2="985.2712">
				<stop  offset="0" style="stop-color:#F4C22E"/>
				<stop  offset="0" style="stop-color:#ECC33E"/>
				<stop  offset="0.3198" style="stop-color:#FCF38F"/>
				<stop  offset="0.6802" style="stop-color:#DCAC26"/>
				<stop  offset="1" style="stop-color:#FAF399"/>
			</linearGradient>
			<path style="fill:url(#SVGID_00000072974592573226102140000001860472565218928292_);" d="M1485.4,441.8v-27.5h3.6v24.2h13.5v3.2
				H1485.4z"/>
			
				<linearGradient id="SVGID_00000013875538468590100170000015174214553849935763_" gradientUnits="userSpaceOnUse" x1="1509.0527" y1="-92.7325" x2="1524.5366" y2="984.9449">
				<stop  offset="0" style="stop-color:#F4C22E"/>
				<stop  offset="0" style="stop-color:#ECC33E"/>
				<stop  offset="0.3198" style="stop-color:#FCF38F"/>
				<stop  offset="0.6802" style="stop-color:#DCAC26"/>
				<stop  offset="1" style="stop-color:#FAF399"/>
			</linearGradient>
			<path style="fill:url(#SVGID_00000013875538468590100170000015174214553849935763_);" d="M1503.9,441.8l10.5-27.5h3.9l11.2,27.5
				h-4.1l-3.2-8.3h-11.5l-3,8.3H1503.9z M1511.8,430.6h9.3l-2.9-7.6c-0.9-2.3-1.5-4.2-1.9-5.7c-0.3,1.8-0.8,3.5-1.5,5.2
				L1511.8,430.6z"/>
			
				<linearGradient id="SVGID_00000008120843380904408060000013470232100632087449_" gradientUnits="userSpaceOnUse" x1="1527.4358" y1="-92.9967" x2="1542.9197" y2="984.6808">
				<stop  offset="0" style="stop-color:#F4C22E"/>
				<stop  offset="0" style="stop-color:#ECC33E"/>
				<stop  offset="0.3198" style="stop-color:#FCF38F"/>
				<stop  offset="0.6802" style="stop-color:#DCAC26"/>
				<stop  offset="1" style="stop-color:#FAF399"/>
			</linearGradient>
			<path style="fill:url(#SVGID_00000008120843380904408060000013470232100632087449_);" d="M1533.1,441.8v-27.5h3.6v27.5H1533.1z"
				/>
		</g>
	</g>
	<g>
		
			<linearGradient id="SVGID_00000088100546633919539650000017529027416332385687_" gradientUnits="userSpaceOnUse" x1="992.3608" y1="-85.3088" x2="1007.8447" y2="992.3687">
			<stop  offset="0" style="stop-color:#F4C22E"/>
			<stop  offset="0" style="stop-color:#ECC33E"/>
			<stop  offset="0.3198" style="stop-color:#FCF38F"/>
			<stop  offset="0.6802" style="stop-color:#DCAC26"/>
			<stop  offset="1" style="stop-color:#FAF399"/>
		</linearGradient>
		<path style="fill:url(#SVGID_00000088100546633919539650000017529027416332385687_);" d="M1063.8,258.4v45.1h-19V336
			c0,2.1-0.1,4.2-0.2,6.2v35.6c0,6.9-5.6,12.5-12.5,12.5h-87c-6.9,0-12.5-5.6-12.5-12.5V258.4h3.4c0,0,0.1,0,0.1,0h27.1
			c0.1,0,0.2,0,0.3,0h3.5v107h21c0.2,0,0.5,0,0.7,0c0.3,0,0.5,0,0.7,0h21.1v-107h34.3v26.6h5.7c0.1-0.4,0.1-0.8,0.1-1.2l-0.1-11.1
			v-14.3H1063.8z"/>
		<g>
			
				<linearGradient id="SVGID_00000027594466586173899560000015403535985834790037_" gradientUnits="userSpaceOnUse" x1="843.5285" y1="-83.1704" x2="859.0124" y2="994.507">
				<stop  offset="0" style="stop-color:#F4C22E"/>
				<stop  offset="0" style="stop-color:#ECC33E"/>
				<stop  offset="0.3198" style="stop-color:#FCF38F"/>
				<stop  offset="0.6802" style="stop-color:#DCAC26"/>
				<stop  offset="1" style="stop-color:#FAF399"/>
			</linearGradient>
			<path style="fill:url(#SVGID_00000027594466586173899560000015403535985834790037_);" d="M904.3,389.1L878.8,339
				c6.5-4.1,11.8-9.5,15.7-16c3.9-6.6,5.9-13.3,5.9-20.3c0-7.4-1.8-14.6-5.4-21.4c-3.6-6.8-8.6-12.3-15-16.5
				c-6.4-4.2-13.6-6.3-21.7-6.3h-46.5h-16.2l0,30.5V375h0v15.1H830v-43.8h14.3l22.8,43.8h37.8L904.3,389.1z M863.4,309.8
				c-1.4,2.5-3.2,4.5-5.6,6c-2.4,1.5-5.1,2.3-8.1,2.3H830v-32.1h19.7c3,0,5.6,0.8,8,2.4c2.4,1.6,4.3,3.6,5.7,6.1
				c1.4,2.5,2.1,5.1,2.1,7.7C865.4,304.8,864.8,307.3,863.4,309.8z"/>
		</g>
		
			<linearGradient id="SVGID_00000074435165193252537560000007055276045527532211_" gradientUnits="userSpaceOnUse" x1="1450.7699" y1="-91.8951" x2="1466.2538" y2="985.7823">
			<stop  offset="0" style="stop-color:#F4C22E"/>
			<stop  offset="0" style="stop-color:#ECC33E"/>
			<stop  offset="0.3198" style="stop-color:#FCF38F"/>
			<stop  offset="0.6802" style="stop-color:#DCAC26"/>
			<stop  offset="1" style="stop-color:#FAF399"/>
		</linearGradient>
		<path style="fill:url(#SVGID_00000074435165193252537560000007055276045527532211_);" d="M1479.8,330v26.6
			c-3.8,1.1-7.8,1.7-12.1,1.7c-6.1,0-11.6-1.5-16.5-4.6c-4.9-3.1-8.7-7.3-11.5-12.5c-2.8-5.3-4.2-11-4.2-17.2
			c0-6.3,1.4-12.1,4.1-17.3c2.7-5.2,6.6-9.3,11.6-12.2c5-3,10.7-4.5,17.3-4.5c5.9,0,11.5,1.6,16.7,4.8l5.6,3.9l17.9-25.9l-2.9-2.4
			c-5.6-4-11.3-7-17.3-9c-6-2-12.7-3-20.3-3c-12,0-23.1,2.9-33.2,8.8c-10.1,5.8-18,13.8-23.9,23.8c-5.9,10-8.8,21-8.8,33
			c0,12,3,23,8.9,33.2c6,10.1,14,18.2,24.1,24.1c10.1,5.9,21.2,8.9,33.2,8.9c7.8,0,15.3-0.9,22.3-2.8c7-1.8,13.1-4.4,18.4-7.8
			c0.8-0.5,1.3-1,1.6-1.7c0.3-0.6,0.4-1.4,0.4-2.4V330H1479.8z"/>
		<g>
			
				<linearGradient id="SVGID_00000172403683257643538890000006520406487194216875_" gradientUnits="userSpaceOnUse" x1="696.4866" y1="-81.0577" x2="711.9705" y2="996.6197">
				<stop  offset="0" style="stop-color:#F4C22E"/>
				<stop  offset="0" style="stop-color:#ECC33E"/>
				<stop  offset="0.3198" style="stop-color:#FCF38F"/>
				<stop  offset="0.6802" style="stop-color:#DCAC26"/>
				<stop  offset="1" style="stop-color:#FAF399"/>
			</linearGradient>
			<path style="fill:url(#SVGID_00000172403683257643538890000006520406487194216875_);" d="M684.7,390.2V288.9h-49.7l17.3-30.5
				h115.8L752,288.9h-33.4v84.7L684.7,390.2L684.7,390.2z"/>
		</g>
		<g>
			
				<linearGradient id="SVGID_00000093159590995932551340000006864703411038838951_" gradientUnits="userSpaceOnUse" x1="1621.8726" y1="-94.3535" x2="1637.3564" y2="983.3239">
				<stop  offset="0" style="stop-color:#F4C22E"/>
				<stop  offset="0" style="stop-color:#ECC33E"/>
				<stop  offset="0.3198" style="stop-color:#FCF38F"/>
				<stop  offset="0.6802" style="stop-color:#DCAC26"/>
				<stop  offset="1" style="stop-color:#FAF399"/>
			</linearGradient>
			<polygon style="fill:url(#SVGID_00000093159590995932551340000006864703411038838951_);" points="1642,359.8 1614.8,359.8 
				1627.8,327.7 			"/>
			<g>
				<defs>
					<polygon id="SVGID_00000093160556203365662560000015027743150661992838_" points="1644.2,258.4 1695.8,390.2 1660.4,390.1 
						1627.7,315.9 1597.8,390.2 1561.4,390.2 1612.9,258.4 					"/>
				</defs>
				
					<linearGradient id="SVGID_00000052795516968092142530000013749145855430993820_" gradientUnits="userSpaceOnUse" x1="1621.6508" y1="-94.3503" x2="1637.1346" y2="983.3271">
					<stop  offset="0" style="stop-color:#F4C22E"/>
					<stop  offset="0" style="stop-color:#ECC33E"/>
					<stop  offset="0.3198" style="stop-color:#FCF38F"/>
					<stop  offset="0.6802" style="stop-color:#DCAC26"/>
					<stop  offset="1" style="stop-color:#FAF399"/>
				</linearGradient>
				
					<use xlink:href="#SVGID_00000093160556203365662560000015027743150661992838_"  style="overflow:visible;fill-rule:evenodd;clip-rule:evenodd;fill:url(#SVGID_00000052795516968092142530000013749145855430993820_);"/>
				<clipPath id="SVGID_00000083796152282059450930000016786314240946299779_">
					<use xlink:href="#SVGID_00000093160556203365662560000015027743150661992838_"  style="overflow:visible;"/>
				</clipPath>
			</g>
		</g>
		
			<linearGradient id="SVGID_00000168104173026726171200000007868820673814461073_" gradientUnits="userSpaceOnUse" x1="1775.575" y1="-96.5619" x2="1791.0588" y2="981.1155">
			<stop  offset="0" style="stop-color:#F4C22E"/>
			<stop  offset="0" style="stop-color:#ECC33E"/>
			<stop  offset="0.3198" style="stop-color:#FCF38F"/>
			<stop  offset="0.6802" style="stop-color:#DCAC26"/>
			<stop  offset="1" style="stop-color:#FAF399"/>
		</linearGradient>
		<polygon style="fill:url(#SVGID_00000168104173026726171200000007868820673814461073_);" points="1839.8,258.4 1839.8,390.2 
			1803.3,390.2 1756.4,309.5 1756.4,390.2 1723.5,390.2 1723.5,258.4 1759.9,258.4 1806.8,339.1 1806.8,258.4 		"/>
		<g>
			
				<linearGradient id="SVGID_00000176034684325284799180000017652489262279350927_" gradientUnits="userSpaceOnUse" x1="1155.5295" y1="-87.6532" x2="1171.0134" y2="990.0242">
				<stop  offset="0" style="stop-color:#F4C22E"/>
				<stop  offset="0" style="stop-color:#ECC33E"/>
				<stop  offset="0.3198" style="stop-color:#FCF38F"/>
				<stop  offset="0.6802" style="stop-color:#DCAC26"/>
				<stop  offset="1" style="stop-color:#FAF399"/>
			</linearGradient>
			<path style="fill:url(#SVGID_00000176034684325284799180000017652489262279350927_);" d="M1230.6,290l-0.1-14.1v-17.5h-12.8v16.4
				l0.1,10.6c0,0.4,0,0.8-0.1,1.2h-6.4c-5.5-7.9-12.5-14.3-20.9-19.2c-10.1-5.9-21.1-8.9-33.1-8.9s-22.9,3-33,8.9
				c-10.1,5.9-18.1,13.9-24,24c-2,3.5-3.7,7-5.1,10.7c-0.2,0.4-0.3,0.9-0.5,1.3c-0.1,0.4-0.3,0.8-0.4,1.3c-1.4,4.5-2.3,9.3-2.7,14.2
				c-0.1,1.3-0.2,2.6-0.2,4c0,0.4,0,0.9,0,1.4v0.2c0,0.5,0,1.1,0,1.6c0.3,11,3.2,21.3,8.2,30.2c0.2,0.3,0.3,0.6,0.5,0.9
				c0.1,0.2,0.3,0.4,0.4,0.7c0.3,0.4,0.5,0.9,0.8,1.3c0,0.1,0.1,0.2,0.2,0.3c0.4,0.6,0.8,1.2,1.1,1.8v0c0.4,0.6,0.8,1.1,1.2,1.7
				c0.4,0.6,0.9,1.2,1.3,1.7c0.4,0.6,0.9,1.1,1.3,1.7c0.4,0.4,0.7,0.9,1.1,1.3c0.3,0.3,0.6,0.7,0.9,1c0.1,0.1,0.1,0.1,0.2,0.2
				c0.3,0.3,0.6,0.7,1,1c0.7,0.8,1.5,1.5,2.2,2.2c0.4,0.4,0.7,0.7,1.1,1c0,0,0.1,0.1,0.1,0.1c0.3,0.3,0.7,0.6,1.1,0.9
				c0.4,0.4,0.8,0.7,1.3,1.1c0.1,0.1,0.3,0.2,0.4,0.3c0.4,0.4,0.9,0.7,1.3,1c0.6,0.4,1.1,0.9,1.7,1.3c1.2,0.8,2.4,1.6,3.6,2.4
				c0.6,0.4,1.2,0.8,1.9,1.1c0.2,0.1,0.4,0.2,0.5,0.3c0.3,0.2,0.7,0.4,1.1,0.6c7.9,4.3,16.9,7,26.3,7.8c0.6,0,1.1,0.1,1.7,0.1
				c0.5,0,1.1,0.1,1.6,0.1h0.1c0.5,0,1.1,0,1.6,0c0.5,0,1.1,0,1.6,0h0.1c0.5,0,1.1,0,1.6-0.1c0.6,0,1.1-0.1,1.7-0.1
				c8.4-0.6,16.3-2.8,23.5-6.3c0.3-0.1,0.6-0.3,0.8-0.4c0.5-0.3,1-0.5,1.6-0.8c0.1,0,0.1,0,0.1-0.1c0.1-0.1,0.3-0.1,0.4-0.2
				c0.5-0.3,1-0.6,1.6-0.9c2.3-1.3,4.5-2.8,6.6-4.4c0.3-0.2,0.6-0.4,0.8-0.6c0.4-0.3,0.8-0.6,1.2-1c0.1-0.1,0.2-0.2,0.4-0.3
				c0.5-0.4,0.9-0.8,1.3-1.1c0.1-0.1,0.2-0.1,0.3-0.2c0.3-0.3,0.6-0.6,0.9-0.9c0.3-0.3,0.6-0.5,0.8-0.8c0,0,0.1-0.1,0.1-0.1
				c0.4-0.3,0.7-0.7,1.1-1c0.4-0.4,0.8-0.8,1.2-1.2c0.2-0.2,0.4-0.5,0.7-0.7c0.2-0.3,0.5-0.5,0.7-0.8c0.2-0.2,0.4-0.4,0.5-0.6
				c0.4-0.5,0.8-0.9,1.2-1.4c0,0,0,0,0,0c0.4-0.6,0.9-1.1,1.3-1.7c0.6-0.8,1.3-1.7,1.9-2.6c0.6-0.9,1.2-1.7,1.8-2.6
				c0.1-0.1,0.1-0.2,0.2-0.3c0.3-0.4,0.5-0.9,0.8-1.3c0.1-0.2,0.3-0.4,0.4-0.7c0.2-0.3,0.3-0.6,0.5-0.9c5-9,7.9-19.3,8.2-30.2
				c0-0.5,0-1.1,0-1.6v-0.1c0-0.7,0-1.4,0-2.2c0-0.3,0-0.6,0-0.9c0-0.4,0-0.7-0.1-1.1c0,0,0-0.1,0-0.1c0-0.4-0.1-0.8-0.1-1.2
				c0-0.2,0-0.5-0.1-0.7c0-0.3-0.1-0.6-0.1-0.8c0,0,0,0,0,0c-0.5-5.1-1.6-10.1-3.3-14.8h11V290z M1158.3,360.6
				c-20,0-36.3-16.2-36.3-36.3c0-20,16.2-36.3,36.3-36.3s36.3,16.3,36.3,36.3C1194.5,344.4,1178.3,360.6,1158.3,360.6z"/>
			
				<linearGradient id="SVGID_00000176738677675886917970000015881672655763277240_" gradientUnits="userSpaceOnUse" x1="1150.5229" y1="-87.5812" x2="1166.0067" y2="990.0962">
				<stop  offset="0" style="stop-color:#F4C22E"/>
				<stop  offset="0" style="stop-color:#ECC33E"/>
				<stop  offset="0.3198" style="stop-color:#FCF38F"/>
				<stop  offset="0.6802" style="stop-color:#DCAC26"/>
				<stop  offset="1" style="stop-color:#FAF399"/>
			</linearGradient>
			
				<polygon style="fill-rule:evenodd;clip-rule:evenodd;fill:url(#SVGID_00000176738677675886917970000015881672655763277240_);" points="
				1116.6,218.6 1197.1,239.3 1195.5,247.2 1113.2,235.4 			"/>
		</g>
		
			<linearGradient id="SVGID_00000088109962058194294840000003599977253151700159_" gradientUnits="userSpaceOnUse" x1="1310.5072" y1="-89.8799" x2="1325.9911" y2="987.7975">
			<stop  offset="0" style="stop-color:#F4C22E"/>
			<stop  offset="0" style="stop-color:#ECC33E"/>
			<stop  offset="0.3198" style="stop-color:#FCF38F"/>
			<stop  offset="0.6802" style="stop-color:#DCAC26"/>
			<stop  offset="1" style="stop-color:#FAF399"/>
		</linearGradient>
		<polygon style="fill:url(#SVGID_00000088109962058194294840000003599977253151700159_);" points="1374.6,258.4 1374.6,390.2 
			1338.2,390.2 1291.3,309.5 1291.3,390.2 1258.3,390.2 1258.3,258.4 1294.7,258.4 1341.6,339.1 1341.6,258.4 		"/>
		
			<linearGradient id="SVGID_00000181771602740746953730000016075876185916639417_" gradientUnits="userSpaceOnUse" x1="794.0895" y1="288.9223" x2="794.0895" y2="288.9223">
			<stop  offset="0" style="stop-color:#F4C22E"/>
			<stop  offset="0" style="stop-color:#ECC33E"/>
			<stop  offset="0.3198" style="stop-color:#FCF38F"/>
			<stop  offset="0.6802" style="stop-color:#DCAC26"/>
			<stop  offset="1" style="stop-color:#FAF399"/>
		</linearGradient>
		<path style="fill:url(#SVGID_00000181771602740746953730000016075876185916639417_);" d="M794.1,288.9"/>
		
			<linearGradient id="SVGID_00000068674168007631006540000002095171162118563766_" gradientUnits="userSpaceOnUse" x1="1220.4055" y1="-88.5853" x2="1235.8894" y2="989.0921">
			<stop  offset="0" style="stop-color:#F4C22E"/>
			<stop  offset="0" style="stop-color:#ECC33E"/>
			<stop  offset="0.3198" style="stop-color:#FCF38F"/>
			<stop  offset="0.6802" style="stop-color:#DCAC26"/>
			<stop  offset="1" style="stop-color:#FAF399"/>
		</linearGradient>
		<polygon style="fill:url(#SVGID_00000068674168007631006540000002095171162118563766_);" points="1225.6,258.4 1225.6,290 
			1225.5,275.9 1225.5,258.4 		"/>
		
			<linearGradient id="SVGID_00000077321954429454430570000015986169351865422492_" gradientUnits="userSpaceOnUse" x1="1502.9369" y1="330.0328" x2="1502.9369" y2="330.0328">
			<stop  offset="0" style="stop-color:#F4C22E"/>
			<stop  offset="0" style="stop-color:#ECC33E"/>
			<stop  offset="0.3198" style="stop-color:#FCF38F"/>
			<stop  offset="0.6802" style="stop-color:#DCAC26"/>
			<stop  offset="1" style="stop-color:#FAF399"/>
		</linearGradient>
		<path style="fill:url(#SVGID_00000077321954429454430570000015986169351865422492_);" d="M1502.9,330"/>
	</g>
	<g>
		
			<linearGradient id="SVGID_00000098911994361655269660000011804192104077750198_" gradientUnits="userSpaceOnUse" x1="221.0561" y1="-74.2268" x2="236.54" y2="1003.4506">
			<stop  offset="0" style="stop-color:#F4C22E"/>
			<stop  offset="0" style="stop-color:#ECC33E"/>
			<stop  offset="0.3198" style="stop-color:#FCF38F"/>
			<stop  offset="0.6802" style="stop-color:#DCAC26"/>
			<stop  offset="1" style="stop-color:#FAF399"/>
		</linearGradient>
		<polygon style="fill:url(#SVGID_00000098911994361655269660000011804192104077750198_);" points="300.1,212.8 151.8,295.1 
			151.8,323.2 300.1,240.9 		"/>
		
			<linearGradient id="SVGID_00000035512136464041193690000002953007925500173971_" gradientUnits="userSpaceOnUse" x1="220.4683" y1="-74.2184" x2="235.9522" y2="1003.459">
			<stop  offset="0" style="stop-color:#F4C22E"/>
			<stop  offset="0" style="stop-color:#ECC33E"/>
			<stop  offset="0.3198" style="stop-color:#FCF38F"/>
			<stop  offset="0.6802" style="stop-color:#DCAC26"/>
			<stop  offset="1" style="stop-color:#FAF399"/>
		</linearGradient>
		<polygon style="fill:url(#SVGID_00000035512136464041193690000002953007925500173971_);" points="151.8,364.1 300.1,281.8 
			300.1,253.7 151.8,336 		"/>
		
			<linearGradient id="SVGID_00000169522879792792441460000012938981251530760890_" gradientUnits="userSpaceOnUse" x1="316.929" y1="-75.6043" x2="332.4128" y2="1002.0731">
			<stop  offset="0" style="stop-color:#F4C22E"/>
			<stop  offset="0" style="stop-color:#ECC33E"/>
			<stop  offset="0.3198" style="stop-color:#FCF38F"/>
			<stop  offset="0.6802" style="stop-color:#DCAC26"/>
			<stop  offset="1" style="stop-color:#FAF399"/>
		</linearGradient>
		<path style="fill:url(#SVGID_00000169522879792792441460000012938981251530760890_);" d="M316.4,565.8h-50.5V314.6l-28.1,15.7
			v235.4H218V341.4l-28.1,15.7v208.7v8v8h268.7v-8v-8V287.5l-142.4-74.7L316.4,565.8z M344.3,256.5l86.2,43.5v265.8h-86.2
			L344.3,256.5z"/>
		
			<linearGradient id="SVGID_00000032626203130952733130000017103092274806956687_" gradientUnits="userSpaceOnUse" x1="381.5928" y1="-76.5334" x2="397.0767" y2="1001.144">
			<stop  offset="0" style="stop-color:#F4C22E"/>
			<stop  offset="0" style="stop-color:#ECC33E"/>
			<stop  offset="0.3198" style="stop-color:#FCF38F"/>
			<stop  offset="0.6802" style="stop-color:#DCAC26"/>
			<stop  offset="1" style="stop-color:#FAF399"/>
		</linearGradient>
		<polygon style="fill:url(#SVGID_00000032626203130952733130000017103092274806956687_);" points="368.9,352 406,370.7 406,314.1 
			368.9,295.3 		"/>
		
			<linearGradient id="SVGID_00000008858226391539659700000016075864731675533460_" gradientUnits="userSpaceOnUse" x1="318.1227" y1="-75.6215" x2="333.6066" y2="1002.056">
			<stop  offset="0" style="stop-color:#F4C22E"/>
			<stop  offset="0" style="stop-color:#ECC33E"/>
			<stop  offset="0.3198" style="stop-color:#FCF38F"/>
			<stop  offset="0.6802" style="stop-color:#DCAC26"/>
			<stop  offset="1" style="stop-color:#FAF399"/>
		</linearGradient>
		<path style="fill:url(#SVGID_00000008858226391539659700000016075864731675533460_);" d="M324.1,88.6
			c-137.7,0-249.3,111.6-249.3,249.3c0,88.3,45.9,165.9,115.2,210.2v-22.4c-10.2-7.3-20-15.6-29-24.7
			c-43.6-43.6-67.6-101.6-67.6-163.2c0-61.6,24-119.6,67.6-163.2s101.5-67.6,163.2-67.6c61.7,0,119.6,24,163.2,67.6
			c43.6,43.6,67.6,101.5,67.6,163.2c0,61.6-24,119.6-67.6,163.2c-9,9-18.5,17.1-28.6,24.4v22.4c69.1-44.3,114.8-121.8,114.8-210
			C573.4,200.2,461.8,88.6,324.1,88.6z"/>
	</g>
</g>
</svg>
