<svg xmlns="http://www.w3.org/2000/svg" viewBox="0 0 107.96 107.96"><defs><style>.cls-1{fill:#fff;}</style></defs><g id="Layer_2" data-name="Layer 2"><g id="Layer_1-2" data-name="Layer 1"><path class="cls-1" d="M85.16,29.86l0-.05A.69.69,0,0,0,85,29.7a7.92,7.92,0,0,0-5.34-2.05H28.31A7.94,7.94,0,0,0,23,29.7l-.12.11s0,0-.05.05a8,8,0,0,0-2.48,5.78V72.32A8,8,0,0,0,22.8,78.1a.12.12,0,0,0,.05.05l.12.11a8,8,0,0,0,5.34,2.06H79.65A7.93,7.93,0,0,0,85,78.26a.69.69,0,0,0,.13-.11l0-.05a8,8,0,0,0,2.49-5.78V35.64A8,8,0,0,0,85.16,29.86ZM63.35,54,83.94,33.15a4.89,4.89,0,0,1,.68,2.49V72.32a4.89,4.89,0,0,1-.68,2.49Zm16.3-23.31a4.88,4.88,0,0,1,2,.45L60.15,52.9h0L56.4,56.7a3.39,3.39,0,0,1-4.83,0l-3.76-3.79h0L26.27,31.12a4.8,4.8,0,0,1,2-.45ZM24,74.81a4.88,4.88,0,0,1-.67-2.49V35.64A4.88,4.88,0,0,1,24,33.15L44.62,54Zm4.29,2.48a4.94,4.94,0,0,1-2-.44L46.75,56.13l2.66,2.7a6.42,6.42,0,0,0,9.14,0l2.67-2.7L81.7,76.85a5,5,0,0,1-2,.44Z"/><path class="cls-1" d="M103.72,33A54,54,0,1,0,54,108a53.93,53.93,0,0,0,54-54A53.55,53.55,0,0,0,103.72,33ZM90,90A51,51,0,0,1,18,18,51,51,0,1,1,90,90Z"/></g></g></svg>