<svg xmlns="http://www.w3.org/2000/svg" viewBox="0 0 106.96 106.96"><defs><style>.cls-1{fill:#fff;}</style></defs><g id="Layer_2" data-name="Layer 2"><g id="Layer_1-2" data-name="Layer 1"><path class="cls-1" d="M64.85,86l6.26-2.65a4,4,0,0,0,1.63-6.08l-7.43-9.85a4,4,0,0,0-4.74-1.28l-4.2,1.78a2,2,0,0,1-2.27-.51c-1.24-1.41-3.46-4.55-6.23-11.06s-3.46-10.3-3.61-12.16a2,2,0,0,1,1.21-2l4.19-1.78A4,4,0,0,0,52,36.13l-1.92-12.2a4,4,0,0,0-5.5-3.05l-6.26,2.65a5,5,0,0,0-2.75,2.9c-1.71,4.85-4.84,17.72,2.16,34.21S56.18,83.82,60.86,86A4.91,4.91,0,0,0,64.85,86Z"/><path class="cls-1" d="M102.76,32.66A53.7,53.7,0,1,0,107,53.48,53.34,53.34,0,0,0,102.76,32.66ZM89.18,89.18A50.48,50.48,0,1,1,17.79,17.79,50.48,50.48,0,0,1,89.18,89.18Z"/></g></g></svg>