<svg xmlns="http://www.w3.org/2000/svg" viewBox="0 0 117.55 143.98"><defs><style>.cls-1{fill:#fff;}</style></defs><g id="Layer_2" data-name="Layer 2"><g id="Layer_1-2" data-name="Layer 1"><path class="cls-1" d="M100.6,141.68l13.07-9.56a9.5,9.5,0,0,0,.46-15L91.55,98.38A9.48,9.48,0,0,0,79.88,98l-8.75,6.41a4.73,4.73,0,0,1-5.54,0c-3.63-2.58-10.5-8.64-20.44-22.22s-13.63-22-15-26.2a4.71,4.71,0,0,1,1.73-5.26l8.73-6.41a9.49,9.49,0,0,0,3.18-11.24L32.72,5.92A9.5,9.5,0,0,0,18.31,1.84L5.25,11.4A11.83,11.83,0,0,0,.47,19.59C-.86,31.76-1.1,63.27,24.07,97.66s55.27,43.69,67.27,46.1A11.71,11.71,0,0,0,100.6,141.68Z"/></g></g></svg>