<svg xmlns="http://www.w3.org/2000/svg" viewBox="0 0 118.89 118.89"><defs><style>.cls-1{fill:none;stroke:#fff;stroke-miterlimit:10;stroke-width:2.54px;}.cls-2{fill:#fff;}</style></defs><g id="Layer_2" data-name="Layer 2"><g id="Layer_1-2" data-name="Layer 1"><circle class="cls-1" cx="59.44" cy="59.44" r="58.17"/><path class="cls-2" d="M90.59,51a14,14,0,0,0-14-14H40.9a14,14,0,0,0-14,14V67.61a14,14,0,0,0,14,14H76.62a14,14,0,0,0,14-14Zm-21,9.56-16,7.93c-.62.34-2.76-.12-2.76-.83V51.37c0-.72,2.15-1.18,2.78-.82l15.33,8.34C69.56,59.26,70.23,60.19,69.58,60.54Z"/></g></g></svg>